<?xml version="1.0" standalone="no"?>
<!DOCTYPE svg PUBLIC "-//W3C//DTD SVG 1.1//EN" "http://www.w3.org/Graphics/SVG/1.1/DTD/svg11.dtd" >
<svg xmlns="http://www.w3.org/2000/svg">
<metadata>
This is a custom SVG webfont generated by Font Squirrel.
Copyright   : Copyright  1993 2001 Adobe Systems Incorporated  All Rights Reserved
Designer    : Erik Spiekermann
Foundry URL : httpwwwadobecomtype
</metadata>
<defs>
<font id="ITCOfficinaSansStdBoldItalic" horiz-adv-x="1138" >
<font-face units-per-em="2048" ascent="1483" descent="-565" />
<missing-glyph horiz-adv-x="606" />
<glyph unicode=" "  horiz-adv-x="606" />
<glyph unicode="&#x09;" horiz-adv-x="606" />
<glyph unicode="&#xa0;" horiz-adv-x="606" />
<glyph unicode="!" horiz-adv-x="720" d="M113 129q0 70 48 117t115.5 47t115.5 -48t48 -116t-48 -116t-115.5 -48t-115.5 47t-48 117zM252 522q0 14 6 39l127 805q4 25 10 31t27 6h217q35 0 35 -23q0 -8 -4 -24l-224 -832q-6 -20 -12 -24t-24 -4h-123q-35 -1 -35 26z" />
<glyph unicode="&#x22;" horiz-adv-x="985" d="M266 1442q0 27 41 26h178q41 0 41 -26q0 -37 -4 -53l-39 -437q-2 -27 -9 -34t-34 -7h-88q-27 0 -34 7.5t-9 33.5l-39 437q-4 16 -4 53zM645 1442q0 27 41 26h178q41 0 41 -26q0 -37 -4 -53l-39 -437q-2 -27 -9 -34t-34 -7h-88q-27 0 -34 7.5t-9 33.5l-39 437q-4 16 -4 53 z" />
<glyph unicode="#" d="M68 317q0 4 6 35l22 101q4 20 10.5 25t24.5 5h119l112 357h-90q-35 0 -34 16q0 6 6 37l20 100q2 20 9.5 25.5t27.5 5.5h121l110 352q6 18 12.5 22.5t26.5 4.5h103q33 0 33 -23q0 -12 -9 -32l-102 -324h215l113 352q6 18 11 22.5t26 4.5h102q35 0 35 -17q0 -8 -11 -38 l-102 -324h105q35 0 34 -23q0 -12 -4 -32l-22 -101q-4 -20 -10.5 -24t-26.5 -4h-133l-115 -357h109q35 0 34 -22l-6 -31l-22 -102q-4 -18 -10.5 -23.5t-24.5 -5.5h-139l-121 -379q-6 -18 -11.5 -22t-21.5 -4h-104q-35 0 -35 22q0 12 8 33l111 350h-215l-121 -379 q-6 -18 -11.5 -22t-21.5 -4h-102q-37 0 -37 22q0 14 6 33l112 350h-88q-34 0 -34 18zM424 483h215l115 357h-217z" />
<glyph unicode="$" d="M76 115q0 12 10 26l74 148q8 16 20 16q8 0 41 -20.5t94.5 -46t135.5 -33.5l88 413q-2 0 -31 14.5t-39 20.5t-40 22.5t-43 30t-37.5 35t-38 44t-28 51t-20.5 63.5t-6 72q0 90 33 162.5t79 113.5t110.5 71t112.5 41t101 17l21 92q2 18 9 23.5t28 5.5h45q35 0 34 -22 q0 -10 -4 -31l-14 -68q76 -8 178.5 -40.5t102.5 -61.5q0 -4 -5 -12l-4 -11l-75 -145q-10 -16 -23 -16q-8 0 -32.5 18t-75 42t-113.5 32l-80 -385q68 -35 95.5 -51.5t79.5 -59.5t74.5 -99.5t22.5 -131.5q0 -117 -45 -206t-117.5 -137.5t-139 -74t-134.5 -33.5l-24 -115 q-4 -18 -11.5 -23t-25.5 -5h-47q-35 0 -35 22q0 20 4 31l20 86q-84 6 -204.5 46t-120.5 69zM492 989q0 -94 98 -145l69 338q-167 -52 -167 -193zM553 209q31 8 51.5 18.5t51 33t48 63.5t17.5 96q0 43 -15.5 75.5t-31 47t-43.5 32.5z" />
<glyph unicode="%" horiz-adv-x="1705" d="M197 897q0 199 110.5 335t278.5 136q117 0 180 -69.5t63 -186.5q0 -199 -110.5 -335t-278.5 -136q-117 0 -180 69.5t-63 186.5zM381 891q0 -96 84 -96q74 0 127 93t53 230q0 96 -84 96q-74 0 -127 -93t-53 -230zM403 -16q0 14 13 34l755 1362q12 23 37 23h127 q35 0 35 -19q0 -20 -12 -41l-756 -1357q-10 -20 -37 -21h-127q-35 1 -35 19zM934 221q0 199 110.5 335t278.5 136q117 0 180.5 -69.5t63.5 -186.5q0 -199 -110.5 -335t-278.5 -136q-117 0 -180.5 69.5t-63.5 186.5zM1118 215q0 -96 84 -96q74 0 127 93t53 230q0 96 -84 97 q-74 0 -127 -93.5t-53 -230.5z" />
<glyph unicode="&#x26;" horiz-adv-x="1290" d="M61 295q0 80 30 152.5t62.5 116.5t96 92.5t88 62.5t84.5 45q12 8 18 10q-2 4 -17 28l-26 40q-10 16 -26.5 48t-26.5 58.5t-17.5 62.5t-7.5 68q0 168 122 263.5t317 95.5q160 0 244.5 -74t84.5 -199q0 -80 -34.5 -150.5t-103 -128t-103.5 -82t-103 -63.5l162 -254 q37 57 62 129l38 111q13 39 27 39q6 0 23 -4l147 -37q25 -8 25 -25q0 -68 -65.5 -201.5t-125.5 -213.5l111 -162q8 -16 8 -23q0 -12 -18 -26l-133 -99q-16 -10 -25 -10q-12 0 -29 25l-82 127q-53 -43 -92 -67.5t-131 -54.5t-199 -30q-174 0 -279.5 81t-105.5 249zM328 367 q0 -82 44 -131.5t126 -49.5q137 0 254 111l-211 326q-127 -68 -170 -129q-43 -57 -43 -127zM555 1081q0 -20 7 -43.5t19.5 -47t23.5 -40.5l25 -36q13 -19 15 -23q197 100 197 239q0 117 -111 117q-76 0 -126 -46t-50 -120z" />
<glyph unicode="'" horiz-adv-x="378" d="M154 1442q0 27 41 26h178q41 0 41 -26q0 -37 -4 -53l-39 -437q-2 -27 -9.5 -34t-33.5 -7h-88q-27 0 -34 7.5t-9 33.5l-39 437q-4 16 -4 53z" />
<glyph unicode="(" horiz-adv-x="948" d="M227 250q0 209 72 418t171 358.5t204.5 270t175.5 181t78 60.5t20 -8l90 -76q12 -12 13 -20q0 -16 -58.5 -82t-140.5 -170.5t-165 -239.5t-141.5 -329.5t-58.5 -399.5q0 -174 41 -324.5t81 -233.5t40 -89q0 -23 -22 -35l-105 -55q-12 -6 -22 -6q-25 0 -89.5 116.5 t-124 308t-59.5 355.5z" />
<glyph unicode=")" horiz-adv-x="948" d="M-102 -426q0 16 58 81.5t140 170t165 240t141.5 330t58.5 399.5q0 135 -25.5 260t-55.5 197.5t-55.5 126t-25.5 63.5q0 23 23 35l104 55q12 6 23 6q25 0 89 -116.5t123.5 -308t59.5 -355.5q0 -209 -71.5 -418t-171 -358.5t-205 -270.5t-175 -181t-78 -60t-20.5 8l-90 76 q-12 12 -12 20z" />
<glyph unicode="*" d="M289 1053q0 2 6 26l41 125q10 33 26 33q8 0 29 -10l227 -121l-43 252q-2 10 -2 22q0 23 41 23h134q41 0 40 -23q0 -12 -2 -22l-43 -252l228 121q20 10 28 10q16 0 27 -33l41 -125q6 -25 6 -26q0 -20 -39 -25l-252 -39l185 -176q18 -18 18 -31q0 -16 -22 -30l-107 -76 q-20 -16 -31 -17q-16 0 -28 29l-117 230l-115 -230q-12 -29 -28 -29q-10 0 -31 17l-107 76q-23 14 -22 30q0 12 18 31l185 176l-252 39q-39 5 -39 25z" />
<glyph unicode="+" d="M104 459v135q0 20 7.5 27.5t27.5 7.5h328v327q0 23 6 29t29 6h135q23 0 29 -6t6 -29v-327h327q20 0 27.5 -7.5t7.5 -27.5v-135q0 -20 -7 -27.5t-28 -7.5h-327v-328q0 -23 -6.5 -29t-28.5 -6h-135q-23 0 -29 6.5t-6 28.5v328h-328q-20 0 -27.5 7.5t-7.5 27.5z" />
<glyph unicode="," horiz-adv-x="606" d="M-63 -215q0 8 12 33l207 415q8 14 14 18.5t23 4.5h219q35 0 34 -23q0 -14 -14 -32l-348 -480q-14 -18 -23 -18q-2 0 -30 14l-74 45q-20 15 -20 23z" />
<glyph unicode="-" horiz-adv-x="681" d="M68 424q0 8 6 45l30 137q6 20 12.5 25.5t24.5 5.5h424q35 0 35 -23q0 -8 -6 -45l-31 -137q-6 -20 -12 -25.5t-25 -5.5h-424q-34 0 -34 23z" />
<glyph unicode="." horiz-adv-x="606" d="M61 152q0 76 55.5 131t131.5 55t131 -55.5t55 -131t-55 -131t-131 -55.5t-131.5 54.5t-55.5 132.5z" />
<glyph unicode="/" horiz-adv-x="985" d="M-203 -391q0 10 13 31l1050 1802q16 27 49 26h131q35 0 35 -22q0 -10 -12 -31l-1051 -1802q-16 -27 -47 -27h-133q-35 0 -35 23z" />
<glyph unicode="0" d="M80 348q0 188 73.5 452.5t165.5 381.5q176 221 437 221q172 0 270 -98.5t98 -284.5q0 -197 -74.5 -454t-164.5 -380q-76 -102 -194 -161.5t-242 -59.5q-174 0 -271.5 98.5t-97.5 284.5zM340 375q0 -188 145 -189q92 0 168 91.5t120 223.5t67.5 263t23.5 229 q0 188 -145 189q-92 0 -168 -91.5t-120 -224.5t-67.5 -263t-23.5 -228z" />
<glyph unicode="1" d="M180 20q0 4 2 12.5t2 12.5l23 115q6 25 31 24h215l192 910l-205 -111q-25 -12 -37 -12t-22 24l-31 76q-10 27 -10 35q0 10 20 22l369 228q20 12 45 12h121q35 0 35 -22q0 -4 -6 -29l-240 -1133h156q27 0 26 -20q0 -4 -2 -12.5t-2 -12.5l-22 -114q-6 -25 -31 -25h-602 q-27 0 -27 20z" />
<glyph unicode="2" d="M51 16q0 96 53.5 215t104.5 185q57 74 145 143.5t166 118.5t148.5 101t112.5 115.5t42 139.5q0 154 -116 154q-63 0 -113.5 -35t-76 -76t-50.5 -75.5t-41 -34.5q-8 0 -20 6l-115 57q-18 10 -19 23q0 25 31 78t86 115.5t153.5 109.5t215.5 47q156 0 240.5 -86t84.5 -244 q0 -115 -43 -202t-101 -140t-185 -149q-59 -45 -141.5 -98.5t-121 -81t-76.5 -74.5t-55 -107h488q35 0 35 -22q0 -10 -4 -31l-29 -137q-4 -20 -11.5 -25.5t-25.5 -5.5h-739q-23 0 -23 16z" />
<glyph unicode="3" d="M35 70q0 12 6 22l68 148q8 18 22 18q6 0 42 -19.5t100.5 -39t138.5 -19.5q127 0 201.5 75t74.5 191q0 160 -223 160h-64q-35 0 -34 23q0 20 4 30l28 138q4 31 37 30h78q129 0 197.5 68t68.5 170q0 133 -125 133q-59 0 -114.5 -34t-89 -67.5t-41.5 -33.5q-10 0 -19 8 l-98 94q-10 6 -10 17q0 20 50 70.5t151.5 100.5t211.5 50q156 0 243 -80t87 -209q0 -139 -73.5 -236.5t-180.5 -142.5q45 -25 73.5 -46t58.5 -82.5t30 -145.5q0 -223 -146.5 -359.5t-390.5 -136.5q-84 0 -172 20.5t-139 45.5t-51 39z" />
<glyph unicode="4" d="M78 330q0 14 6 32l41 195q4 18 16 35l668 840q14 14 25 14q6 0 26 -8l129 -64q23 -10 23 -28q0 -6 -11 -21l-655 -825h311l119 356q6 18 12.5 22.5t24.5 4.5h113q35 0 35 -21q0 -2 -7 -33l-69 -329h121q35 0 34 -23q0 -8 -6 -33l-24 -104q-4 -20 -11.5 -25.5t-25.5 -5.5 h-129l-60 -280q-4 -18 -11 -23.5t-25 -5.5h-160q-35 0 -35 18q0 4 6 35l53 256h-499q-35 1 -35 21z" />
<glyph unicode="5" d="M45 51q0 12 6 25l58 151q6 20 24 21q6 0 44 -17.5t100.5 -34t128.5 -16.5q162 0 258 101.5t96 238.5q0 166 -160 166q-74 0 -129 -29.5t-85 -59.5t-42 -30q-10 0 -18 4l-107 37q-33 10 -33 27q0 6 4.5 16.5t4.5 14.5l206 675q6 18 12.5 22.5t24.5 4.5h606q33 0 33 -22 q0 -10 -4 -31l-26 -131q-4 -20 -11.5 -25.5t-25.5 -5.5h-432l-105 -322q94 49 199 50q145 0 239.5 -89.5t94.5 -236.5q0 -240 -170 -415t-443 -175q-117 0 -232.5 29.5t-115.5 56.5z" />
<glyph unicode="6" d="M137 352q0 176 53.5 358.5t146.5 338t240.5 255t317.5 99.5q90 0 159.5 -18.5t69.5 -47.5q0 -12 -6 -24l-65 -131q-12 -20 -23 -21q-4 0 -54 13.5t-102 13.5q-248 0 -415 -354l4 -5q115 129 268 129q127 0 205 -88t78 -252q0 -289 -151.5 -471t-383.5 -182 q-160 0 -251 95t-91 292zM383 334q0 -72 35 -113t92 -41q113 0 185.5 123t72.5 283q0 76 -36 116.5t-99 40.5q-111 0 -180.5 -122.5t-69.5 -286.5z" />
<glyph unicode="7" d="M164 29q0 6 14 30l668 1088h-502q-35 0 -35 22q0 20 4 31l31 139q2 18 9 23.5t28 5.5h743q35 0 35 -22q0 -10 -4 -31l-10 -45q-4 -18 -17 -41l-720 -1243q-14 -20 -25 -21q-14 0 -31 4l-157 37q-31 7 -31 23z" />
<glyph unicode="8" d="M61 279q0 82 31 153.5t67 113.5t98 85t89 55l74 35q-31 20 -45.5 31.5t-49 47.5t-52 87t-17.5 114q0 186 131 294t332 108q170 0 273.5 -86t103.5 -217q0 -240 -289 -375q37 -20 59.5 -36.5t59.5 -53.5t56 -92.5t19 -124.5q0 -195 -150.5 -324t-385.5 -129 q-190 0 -297 79t-107 235zM307 340q0 -80 55.5 -120t147.5 -40q106 0 176 57.5t70 161.5q0 29 -6.5 53.5t-14.5 43t-22.5 36t-25.5 27.5t-30.5 22.5t-29 16.5t-27.5 13l-22 12l-58.5 -25.5t-65.5 -36.5t-74 -55.5t-49.5 -71.5t-23.5 -94zM502 1008q0 -55 27.5 -98.5 t47 -55.5l62.5 -37l60 28q24 11 65 40.5t63.5 75t22.5 100.5q0 63 -40 100t-112 37q-84 0 -140 -52t-56 -138z" />
<glyph unicode="9" d="M115 20l6 25l45 141q6 20 22 21q4 0 48.5 -13.5t89.5 -13.5q248 0 415 355l-4 4q-115 -129 -268 -129q-127 0 -205 88t-78 252q0 289 151.5 471t383.5 182q160 0 251 -95.5t91 -291.5q0 -176 -53.5 -358.5t-146.5 -338t-240.5 -255t-317.5 -99.5q-72 0 -131 17.5 t-59 37.5zM432 782q0 -76 36 -116.5t99 -40.5q111 0 180.5 122.5t69.5 286.5q0 72 -34.5 113t-92.5 41q-113 0 -185.5 -123t-72.5 -283z" />
<glyph unicode=":" horiz-adv-x="606" d="M39 152q0 76 55.5 131t131 55t131 -55.5t55.5 -131t-55.5 -131t-131.5 -55.5q-78 0 -132 54.5t-54 132.5zM182 825.5q0 75.5 55.5 131t131 55.5t131 -55.5t55.5 -131t-55.5 -131t-130.5 -55.5q-78 0 -132.5 55.5t-54.5 131z" />
<glyph unicode=";" horiz-adv-x="606" d="M-63 -215q0 8 12 33l207 415q8 14 14 18.5t23 4.5h219q35 0 34 -23q0 -14 -14 -32l-348 -480q-14 -18 -23 -18q-2 0 -30 14l-74 45q-20 15 -20 23zM225 825.5q0 75.5 55.5 131t131 55.5t131 -55.5t55.5 -131t-55.5 -131t-131 -55.5t-131 55.5t-55.5 131z" />
<glyph unicode="&#x3c;" d="M102 461v127q0 18 4.5 25.5t18.5 11.5l833 278l9 2q6 2 8 2h6q2 0 4 -2t4 -6t4 -12l35 -123q2 -10 2 -16q0 -20 -16 -25l-606 -193v-4l606 -192q16 -6 16 -25q0 -4 -1 -9t-1 -7l-35 -123q-6 -23 -18 -23q-10 0 -17 7l-833 276q-23 6 -23 31z" />
<glyph unicode="=" d="M104 295v135q0 20 7.5 27.5t27.5 7.5h860q20 0 27.5 -7t7.5 -28v-135q0 -20 -7 -27.5t-28 -7.5h-860q-20 0 -27.5 7.5t-7.5 27.5zM104 621v135q0 20 7.5 27.5t27.5 7.5h860q20 0 27.5 -6.5t7.5 -28.5v-135q0 -23 -7 -29t-28 -6h-860q-20 0 -27.5 6t-7.5 29z" />
<glyph unicode="&#x3e;" d="M104 309q0 18 17 25l606 192v4l-606 193q-16 4 -17 25l2 16l35 123q4 14 7.5 17t11.5 3q2 0 8 -2l8 -2l834 -278q14 -4 18 -11.5t4 -25.5v-127q0 -25 -22 -31l-834 -276q-6 -6 -16 -7q-12 0 -19 23l-35 123q0 2 -1 7t-1 9z" />
<glyph unicode="?" horiz-adv-x="948" d="M184 129q0 70 48.5 117t116 47t115.5 -48t48 -116t-48 -116t-115.5 -48t-116 47t-48.5 117zM238 1323q0 31 142 73t257 42q162 0 257 -87t95 -227q0 -106 -42 -190t-111.5 -134t-134 -78t-130.5 -42l-32 -152q-4 -20 -10.5 -24t-24.5 -4h-166q-31 0 -31 22q0 4 6 29 l52 246q2 12 14 25.5t29 15.5q305 51 305 237q0 127 -142 127q-72 0 -157.5 -32.5t-91.5 -32.5q-14 0 -19 16l-57 145q-8 17 -8 25z" />
<glyph unicode="@" horiz-adv-x="2048" d="M211 399q0 414 284.5 691.5t694.5 277.5q336 0 527.5 -171t191.5 -454q0 -287 -173 -458.5t-397 -171.5q-53 0 -90 13t-56 37.5t-27.5 44t-14.5 46.5q-104 -141 -240 -141q-90 0 -140 63.5t-50 185.5q0 213 110.5 373t262.5 160q90 0 159 -70l11 23q8 20 32 20h136 q25 0 24 -20q0 -4 -1 -11.5t-1 -9.5l-92 -436q-6 -27 -6 -53q0 -57 71 -57q111 0 204 122.5t93 329.5q0 215 -142 348t-402 133q-344 0 -564.5 -233t-220.5 -588q0 -281 165 -434.5t464 -153.5q174 0 321.5 38t225.5 75t84 37q12 0 20 -16l33 -84l4 -11q2 -8 2 -14 q0 -25 -89 -65.5t-255 -76.5t-340 -36q-393 0 -606 195.5t-213 551.5zM942 356q0 -76 55 -75q66 0 106 55t56 131l49 229q-45 45 -98 45q-78 0 -123 -127t-45 -258z" />
<glyph unicode="A" horiz-adv-x="1175" d="M-35 23q0 2 10 26l674 1335q8 18 37 19h197q18 0 26.5 -5t10.5 -30l118 -1319q0 -4 1 -10t1 -10q0 -29 -34 -29h-215q-27 0 -27 23l-14 350h-349l-157 -344q-16 -25 -25 -27q-6 -2 -16 -2h-211q-27 0 -27 23zM469 557h274l-18 356q-8 139 -8 211h-4q-6 -27 -19.5 -58.5 l-36 -80.5t-32.5 -74z" />
<glyph unicode="B" d="M68 23q0 14 4 30l280 1321q4 18 11.5 23.5t25.5 5.5h320q399 0 399 -305q0 -242 -277 -363q190 -88 191 -297q0 -438 -592 -438h-332q-30 0 -30 23zM362 205h89q143 0 218.5 55t75.5 209q0 90 -49 117.5t-153 27.5h-94zM492 819h81q125 0 197 61.5t72 190.5 q0 74 -43 100.5t-123 26.5h-103z" />
<glyph unicode="C" horiz-adv-x="985" d="M100 446q0 195 44 371t127 315.5t219.5 222.5t306.5 83q111 0 211 -50.5t100 -91.5l-10 -20l-94 -141q-10 -12 -21 -13q-14 0 -76.5 47.5t-124.5 47.5q-125 0 -221 -125t-140 -297t-44 -349q0 -147 43 -203.5t143 -56.5q68 0 143.5 38t82 38t14.5 -14l51 -131l2 -8 q4 -8 4 -17q0 -35 -126 -81t-222 -46q-412 0 -412 481z" />
<glyph unicode="D" horiz-adv-x="1214" d="M66 23q0 14 4 30l280 1321q4 18 11.5 23.5t25.5 5.5h334q461 0 461 -434q0 -47 -4 -106.5t-21.5 -158t-45.5 -188.5t-81 -186.5t-122.5 -167t-178 -116.5t-240.5 -46h-393q-30 0 -30 23zM367 215h139q111 0 193.5 76t124.5 195.5t61.5 235.5t19.5 226q0 145 -62.5 192.5 t-189.5 47.5h-82z" />
<glyph unicode="E" horiz-adv-x="985" d="M66 23q0 14 4 30l280 1321q4 18 11.5 23.5t25.5 5.5h684q23 0 29 -4t6 -19l-12 -30l-70 -136q-16 -27 -43 -26h-403l-74 -346h348q29 0 29 -23q0 -8 -4 -28l-29 -136q-4 -20 -10.5 -24t-26.5 -4h-352l-86 -412h440q35 0 35 -16q0 -6 -6 -37l-29 -133q-4 -18 -11 -23.5 t-26 -5.5h-680q-30 0 -30 23z" />
<glyph unicode="F" horiz-adv-x="948" d="M66 23q0 14 4 30l280 1321q4 18 11.5 23.5t25.5 5.5h684q23 0 29 -4t6 -19l-12 -30l-70 -136q-16 -27 -43 -26h-403l-74 -346h348q29 0 29 -23q0 -8 -4 -28l-29 -136q-4 -20 -10.5 -24t-26.5 -4h-352l-127 -598q-4 -18 -11.5 -23.5t-25.5 -5.5h-199q-30 0 -30 23z" />
<glyph unicode="G" horiz-adv-x="1175" d="M100 440q0 141 27 279.5t86 268.5t143 229.5t209 160t275 60.5q119 0 238.5 -46t119.5 -83q0 -6 -8 -23l-92 -135q-16 -20 -29 -21q-6 0 -37 22t-88 43.5t-125 21.5q-113 0 -203 -77t-139 -198t-74.5 -252t-25.5 -258q0 -131 44 -188.5t144 -57.5q80 0 162 37l66 314 h-148q-27 0 -27 22q0 6 5 27l30 143q6 29 37 29h369q27 0 26 -23q0 -6 -4 -26l-125 -588q-12 -55 -153 -105.5t-279 -50.5q-424 0 -424 475z" />
<glyph unicode="H" horiz-adv-x="1251" d="M66 23q0 14 4 30l280 1321q4 18 11.5 23.5t25.5 5.5h199q31 0 30 -23q0 -14 -4 -30l-108 -512h375l114 536q4 18 11.5 23.5t25.5 5.5h199q31 0 31 -23q0 -14 -5 -30l-280 -1321q-4 -18 -11.5 -23.5t-25.5 -5.5h-199q-31 0 -30 23q0 14 4 30l118 563h-376l-123 -587 q-4 -18 -11.5 -23.5t-25.5 -5.5h-199q-30 0 -30 23z" />
<glyph unicode="I" horiz-adv-x="720" d="M-29 23q0 6 4 26l23 113q6 29 37 28h123l217 1022h-119q-27 0 -27 23q0 6 4 27l23 112q6 29 37 29h502q27 0 26 -23q0 -6 -4 -26l-22 -113q-4 -18 -11.5 -23.5t-25.5 -5.5h-123l-217 -1022h119q27 0 26 -22q0 -6 -4 -27l-22 -112q-4 -18 -11.5 -23.5t-25.5 -5.5h-502 q-27 0 -27 23z" />
<glyph unicode="J" horiz-adv-x="948" d="M-6 252q0 152 37 151h186q23 0 23 -12q0 -2 -7.5 -41t-7.5 -67q0 -102 97 -103q51 0 84.5 32t47 67.5t25.5 93.5l178 839h-290q-27 0 -27 23q0 6 4 27l23 112q6 29 36 29h523q27 0 26 -23q0 -6 -4 -26l-198 -932q-14 -72 -32 -127t-53.5 -120.5t-82.5 -107.5t-122 -72 t-171 -30q-135 0 -215 74t-80 213z" />
<glyph unicode="K" d="M66 23q0 14 4 30l280 1321q4 18 11.5 23.5t25.5 5.5h199q31 0 30 -23q0 -14 -4 -30l-116 -537l4 -4l569 606q18 23 33 23q4 0 24 -11l138 -71q23 -14 22 -25q0 -12 -14 -26l-574 -578l346 -618q12 -25 13 -33q0 -14 -23 -25l-184 -76q-27 -10 -33 -10q-14 0 -24 23 l-328 663h-4l-129 -622q-4 -18 -11.5 -23.5t-25.5 -5.5h-199q-30 0 -30 23z" />
<glyph unicode="L" horiz-adv-x="948" d="M66 23q0 14 4 30l280 1321q4 20 10.5 24.5t26.5 4.5h199q31 0 30 -23q0 -14 -4 -30l-237 -1114h491q35 0 35 -21q0 -16 -8 -33l-70 -153q-8 -18 -14 -23.5t-23 -5.5h-690q-30 0 -30 23z" />
<glyph unicode="M" horiz-adv-x="1402" d="M45 23q0 6 4 26l348 1325q4 18 11.5 23.5t25.5 5.5h201q27 0 31 -33l45 -508q6 -72 6 -141q0 -20 -2 -60t-2 -59h4q37 129 108 254l291 526q12 20 39 21h186q27 0 27 -23q0 -6 -4 -26l-217 -1325q-4 -18 -11.5 -23.5t-25.5 -5.5h-168q-27 0 -27 23q0 6 5 26l129 729 q27 137 69 281l-4 4q-49 -133 -135 -287l-246 -444q-10 -16 -14 -19.5t-23 -3.5h-92q-20 0 -27.5 5t-9.5 30l-41 414q-18 193 -18 305h-4q-18 -119 -58 -311l-170 -723q-6 -29 -36 -29h-168q-27 0 -27 23z" />
<glyph unicode="N" horiz-adv-x="1251" d="M61 23q0 14 5 30l280 1321q6 29 37 29h147q20 0 25.5 -4t11.5 -23l219 -678q27 -74 58 -221h4q4 96 35 234l141 663q4 18 11 23.5t26 5.5h172q31 0 31 -23q0 -14 -4 -30l-283 -1321q-4 -20 -9 -24.5t-24 -4.5h-133q-18 0 -25.5 4t-11.5 23l-235 741q-16 49 -45 180h-5 q-6 -51 -36 -207l-152 -712q-4 -18 -11 -23.5t-26 -5.5h-172q-31 0 -31 23z" />
<glyph unicode="O" horiz-adv-x="1175" d="M96 389q0 186 42 366.5t122 336t214 251t304 95.5q180 0 277.5 -109.5t97.5 -316.5q0 -186 -41 -366.5t-121 -335t-214 -250t-302 -95.5q-182 0 -280.5 108.5t-98.5 315.5zM373 395q0 -113 28.5 -164t102.5 -51q115 0 203 139.5t129 323.5t41 363q0 115 -29 166t-100 51 q-115 0 -204 -140.5t-130 -325t-41 -362.5z" />
<glyph unicode="P" horiz-adv-x="1062" d="M66 23q0 14 4 30l280 1321q4 18 11.5 23.5t25.5 5.5h303q92 0 160 -11.5t133.5 -43t99 -97t33.5 -164.5q0 -262 -159.5 -394t-405.5 -132h-107l-112 -532q-4 -18 -11.5 -23.5t-25.5 -5.5h-199q-30 0 -30 23zM492 782h61q297 0 297 258q0 82 -49 112t-139 30h-87z" />
<glyph unicode="Q" horiz-adv-x="1175" d="M96 389q0 186 42 366.5t122 336t214 251t304 95.5q180 0 277.5 -109.5t97.5 -316.5q0 -250 -83 -505t-208 -374q16 -18 63 -60l82 -76q36 -34 35 -40q0 -10 -12 -20l-166 -103q-12 -6 -24 -6q-43 0 -178 170q-35 -16 -89 -27q-45 -6 -98 -6q-182 0 -280.5 108.5 t-98.5 315.5zM373 395q0 -113 28.5 -164t102.5 -51q115 0 203 139.5t129 323.5t41 363q0 115 -29 166t-100 51q-115 0 -204 -140.5t-130 -325t-41 -362.5z" />
<glyph unicode="R" horiz-adv-x="1099" d="M45 23q0 14 4 30l281 1321q4 18 11 23.5t26 5.5h303q92 0 159.5 -11.5t133 -43t99.5 -97t34 -164.5q0 -166 -91.5 -299t-240.5 -182l190 -528q0 -2 6.5 -17.5t6.5 -19.5q0 -14 -23 -21l-192 -49q-31 -6 -33 -6q-16 0 -23 23l-170 573h-102l-113 -532q-4 -18 -11 -23.5 t-26 -5.5h-198q-31 0 -31 23zM471 782h61q297 0 297 258q0 82 -49 112t-139 30h-86z" />
<glyph unicode="S" horiz-adv-x="985" d="M-25 76l15 28l78 150q10 18 22 18q6 0 51 -21.5t115 -43t137 -21.5q102 0 169 50.5t67 154.5q0 53 -31 97t-63.5 68t-96.5 62q-68 41 -98.5 61.5t-79.5 67t-70.5 104.5t-21.5 134q0 217 143.5 335t382.5 118q104 0 229.5 -40t125.5 -71l-15 -29l-78 -149q-10 -18 -22 -19 q-6 0 -46 22t-103.5 43.5t-122.5 21.5q-102 0 -165 -50.5t-63 -140.5q0 -53 35 -97t79 -71l117 -72q73 -45 121 -84q119 -94 119 -256q0 -211 -147.5 -346t-401.5 -135q-111 0 -246 41t-135 70z" />
<glyph unicode="T" horiz-adv-x="948" d="M178 1190q0 14 6 31l35 153q2 18 9.5 23.5t27.5 5.5h838q23 0 28.5 -4t5.5 -19l-12 -30l-78 -156q-16 -27 -43 -27h-254l-243 -1138q-4 -18 -11.5 -23.5t-25.5 -5.5h-199q-31 0 -31 23q0 14 5 30l239 1114h-262q-35 0 -35 23z" />
<glyph unicode="U" horiz-adv-x="1251" d="M123 301q0 78 20 174l189 899q4 18 11 23.5t26 5.5h198q31 0 31 -23q0 -14 -4 -30l-193 -877q-18 -63 -18 -133q0 -154 182 -154q121 0 178.5 77t85.5 208l189 903q4 18 11 23.5t26 5.5h192q31 0 31 -23q0 -14 -4 -30l-184 -875q-18 -88 -35 -144.5t-58 -133t-95 -121.5 t-148.5 -78t-216.5 -33q-197 0 -305.5 84t-108.5 252z" />
<glyph unicode="V" horiz-adv-x="1099" d="M203 1366q0 10 33 16l210 37q2 0 11.5 1t13.5 1q20 0 21 -37l-13 -858q0 -49 -4 -166.5t-4 -162.5h4q45 125 131 329l375 873q8 23 27 22q2 0 13 -2t17 -2l193 -26q29 -6 29 -23q0 -6 -9 -27l-659 -1337q-10 -23 -37 -22h-233q-37 0 -37 32l-80 1323q0 6 -1 15.5t-1 13.5 z" />
<glyph unicode="W" horiz-adv-x="1593" d="M215 16l21 1342q0 18 30 24l180 37q4 0 12.5 1t10.5 1q23 0 23 -37l-50 -745q-8 -166 -30 -305l4 -4q66 195 119 311l325 739q8 23 37 23h156q20 0 26 -6t6 -29v-711q0 -98 -22 -323l4 -4q45 182 102 327l289 742q8 23 27 22q10 0 31 -4l163 -37q29 -8 29 -22 q0 -10 -8 -27l-598 -1327q-8 -16 -13.5 -19t-23.5 -3h-164q-23 0 -30 7t-5 27l13 732q2 68 28 319l-4 4q-53 -184 -117 -326l-335 -741q-4 -10 -7 -12l-6 -6q-4 -4 -9 -4h-15h-164q-23 0 -29 7t-6 27z" />
<glyph unicode="X" horiz-adv-x="1062" d="M-92 59.5q0 14.5 8 26.5l541 662l-232 577q-4 10 -4 22.5t35 22.5l188 49q6 2 23 2q12 0 22 -37l84 -299q29 -98 35 -159h4q39 76 95 161l211 312q16 23 26 22q14 0 31 -4l182 -51q29 -8 29 -23q0 -18 -8 -26l-473 -600l243 -639q4 -20 4 -23q0 -16 -32 -22l-189 -49 q-2 0 -10 -1t-12 -1q-14 0 -25 36l-90 299q-39 135 -45 185h-4q-23 -43 -103 -150l-266 -348q-16 -23 -26.5 -22.5t-30.5 4.5l-182 51q-29 8 -29 22.5z" />
<glyph unicode="Y" horiz-adv-x="1062" d="M186 1348q0 12 33 22l189 49q6 2 22 2t27 -37l80 -299q35 -125 45 -268h4q80 150 162 270l210 312q16 23 26.5 22.5t31.5 -4.5l182 -51q29 -8 29 -23q0 -18 -8 -26l-541 -742l-113 -546q-4 -18 -11 -23.5t-26 -5.5h-198q-31 0 -31 23q0 14 4 30l113 522l-228 750 q-2 5 -2 23z" />
<glyph unicode="Z" horiz-adv-x="1024" d="M-37 23q0 10 4 30l33 154l756 960h-486q-23 0 -28.5 4.5t-5.5 18.5q0 10 12 31l71 155q10 27 43 27h707q35 0 35 -23l-6 -30l-37 -172l-744 -942h572q35 0 35 -23q0 -14 -9 -31l-55 -153q-8 -20 -13 -24.5t-26 -4.5h-823q-35 0 -35 23z" />
<glyph unicode="[" horiz-adv-x="909" d="M150 -389q0 8 4 29l385 1798q2 20 9 25t25 5h414q35 0 35 -24q0 -6 -2 -15.5t-2 -13.5l-27 -131q-6 -31 -37 -31h-211l-311 -1452h201q35 0 35 -22l-6 -31l-27 -133q-4 -18 -11.5 -23.5t-25.5 -5.5h-422q-26 0 -26 25z" />
<glyph unicode="\" horiz-adv-x="1099" d="M287 1446q0 23 45 22h129q33 0 39 -41l442 -1792q0 -4 1 -8t1 -8q0 -33 -18 -33h-156q-27 0 -37 39l-442 1794q-4 17 -4 27z" />
<glyph unicode="]" horiz-adv-x="909" d="M-113 -389q0 6 2 15t2 14l27 131q6 31 37 30h211l311 1452h-201q-35 0 -34 23l6 31l26 133q4 18 11.5 23t25.5 5h422q27 0 27 -24q0 -8 -4 -29l-385 -1798q-2 -20 -9.5 -25.5t-25.5 -5.5h-414q-35 0 -35 25z" />
<glyph unicode="^" d="M240 707q0 2 5 12t5 12l268 653q8 18 33 19h135q25 0 33 -19l268 -653q0 -2 5 -12t5 -12q0 -14 -20 -19l-123 -26q-6 -2 -16 -3q-20 0 -27 15l-193 485l-192 -485q-6 -14 -27 -15q-10 0 -16 3l-123 26q-20 5 -20 19z" />
<glyph unicode="_" horiz-adv-x="1024" d="M0 -154h1024v-102h-1024v102z" />
<glyph unicode="`" horiz-adv-x="737" d="M182 1325q0 16 15 33l79 115q12 23 33 22q8 0 31 -16l281 -226q10 -10 10 -16q0 -4 -4 -10l-11 -16q-6 -9 -8 -13l-28 -41q-16 -23 -29 -22q-10 0 -35 12l-315 151q-19 9 -19 27z" />
<glyph unicode="a" horiz-adv-x="1062" d="M70 303q0 303 144 523.5t341 220.5q61 0 113.5 -25t68 -39t45.5 -47l23 55q8 20 29 21h161q23 0 23 -21q0 -8 -4 -24l-135 -641q-16 -72 -17 -146q2 -27 9.5 -69.5t7.5 -53.5q0 -12 -25 -22l-164 -64q-18 -6 -24 -6q-16 0 -27.5 53.5t-11.5 131.5q-94 -106 -172 -146 q-76 -39 -158 -39q-111 0 -169 88t-58 250zM315 293q0 -123 86 -123q104 0 168 85t90 200l72 333q-4 2 -16.5 13.5t-20.5 17.5t-22.5 15.5t-26.5 14.5t-29.5 9t-35.5 4q-82 0 -144.5 -100t-91.5 -227t-29 -242z" />
<glyph unicode="b" horiz-adv-x="1062" d="M47 123q0 14 4 31l268 1251q2 12 4.5 17t10.5 10.5t22 7.5l181 37q25 6 28 6q10 0 10 -21q0 -4 -6 -41l-114 -522l4 -4q31 49 106.5 100.5t182.5 51.5q129 0 187 -88.5t58 -229.5q0 -133 -33.5 -265t-98 -245t-171 -183.5t-237.5 -70.5q-121 0 -263.5 60.5t-142.5 97.5z M311 205q86 -55 168 -55q84 0 148.5 101t92.5 224t28 230q0 137 -111 137q-195 0 -252 -285z" />
<glyph unicode="c" horiz-adv-x="833" d="M49 365q0 307 164 494.5t405 187.5q74 0 140.5 -19.5t100.5 -40t34 -33.5q0 -6 -12 -24l-78 -127q-8 -12 -19 -12q-4 0 -23.5 12t-59 25.5t-97.5 13.5q-133 0 -214 -146.5t-81 -351.5q0 -164 152 -164q57 0 113.5 23.5t60.5 23.5q12 0 16 -10l51 -137l7 -21 q0 -29 -96.5 -61.5t-182.5 -32.5q-174 0 -277.5 102.5t-103.5 297.5z" />
<glyph unicode="d" horiz-adv-x="1062" d="M63 272q0 129 33 260.5t93.5 249t164 191.5t230.5 74q88 0 178 -52l88 410q2 12 4 17t10 10.5t23 7.5l180 37q25 6 29 6q10 0 10 -23q0 -2 -6 -39l-242 -1134q-8 -37 -8 -107q2 -27 9 -69.5t7 -53.5q0 -12 -24 -22l-164 -64q-18 -6 -25 -6q-16 0 -27.5 53.5t-11.5 131.5 q-82 -94 -137 -130q-86 -55 -190 -55q-224 0 -224 307zM309 311q0 -141 99 -141q88 0 154.5 92t90.5 215l72 338q-74 37 -131 37q-74 0 -132.5 -53.5t-90 -138.5t-47 -174t-15.5 -175z" />
<glyph unicode="e" horiz-adv-x="948" d="M53 346q0 303 169 502t411 199q143 0 223 -73t80 -198q0 -80 -31 -143.5t-74 -103.5t-110.5 -68.5t-120.5 -41.5t-125 -20.5t-103.5 -8.5t-72.5 -1v-20v-27q0 -6 2 -26.5t5 -29.5l9 -29q6 -19 14.5 -28.5t23 -22.5t30.5 -19.5t39.5 -11.5t52.5 -5q72 0 164 41t96 41 q10 0 17 -14l51 -127l6 -19q0 -14 -54.5 -44t-151.5 -56.5t-193 -26.5q-178 0 -267.5 101.5t-89.5 279.5zM328 573q362 0 362 189q0 43 -24.5 71.5t-69.5 28.5q-198 0 -268 -289z" />
<glyph unicode="f" horiz-adv-x="720" d="M-207 -379q0 6 4 23l43 143q6 14 15 14q2 0 14 -3t31.5 -5t38.5 -2q51 0 84.5 15.5t53 50t30 67.5t22.5 92l160 811h-146q-29 0 -28 21q0 8 4 24l24 115q2 25 29 25h152l24 129q14 74 31.5 123t55.5 101t107.5 77.5t170.5 25.5q70 0 138.5 -17t68.5 -40q0 -4 -5 -16 l-49 -144q-6 -14 -16 -14q-6 0 -47 13.5t-76 13.5q-39 0 -63.5 -11.5t-40 -41t-20.5 -48t-15 -63.5l-19 -88h234q25 0 24 -19l-6 -24l-37 -119q-4 -14 -9 -18.5t-19 -4.5h-221l-166 -841q-16 -84 -40 -145.5t-66 -124t-114.5 -96.5t-173.5 -34q-182 0 -182 35z" />
<glyph unicode="g" horiz-adv-x="1024" d="M-51 -330q0 2 6 21l63 149q6 14 19 15l102 -43q100 -41 199 -41q74 0 120 23.5t68.5 68.5t32.5 89t22.5 110.5t24.5 105.5l-4 4q-131 -172 -303 -172q-129 0 -193.5 91t-64.5 241q0 166 57.5 327.5t173 274.5t256.5 113q63 0 117.5 -25t69.5 -39l55 -57q84 121 113 121 q4 0 28 -13l125 -67q14 -8 15 -21q0 -6 -23.5 -45t-54.5 -101.5t-43 -123.5l-64 -303q-12 -55 -25 -150l-24 -161q-10 -67 -31.5 -149.5t-55.5 -138t-86 -106.5t-134 -76.5t-191 -25.5q-123 0 -246.5 35.5t-123.5 68.5zM287 326q0 -141 104 -142q96 0 157.5 74t88.5 197 l72 333q-80 74 -160 74q-78 0 -140.5 -92t-92 -212.5t-29.5 -231.5z" />
<glyph unicode="h" horiz-adv-x="1062" d="M33 20q0 2 1 10.5t1 12.5l291 1362q2 12 4 17t10 10.5t22 7.5l183 37q25 6 28 6q10 0 11 -23q0 -2 -6 -39l-119 -538l4 -4q141 168 305 168q213 0 213 -216q0 -57 -20 -159l-148 -647q-2 -16 -7 -20.5t-22 -4.5h-190q-27 0 -27 20q0 2 1 10.5t1 12.5l133 584 q18 92 19 125q0 80 -92 79q-51 0 -97.5 -40.5t-78 -106.5t-53 -128t-33.5 -126l-88 -405q-2 -16 -7.5 -20.5t-21.5 -4.5h-191q-26 0 -26 20z" />
<glyph unicode="i" horiz-adv-x="606" d="M84 848q0 8 4 24l23 115q4 25 30 25h381q25 0 25 -19q0 -20 -2 -26l-201 -942q-2 -16 -7 -20.5t-22 -4.5h-190q-27 0 -27 20q0 14 2 23l166 784h-155q-27 1 -27 21zM315 1315q0 74 51.5 121t117 47t117.5 -48.5t52 -120t-50 -120.5t-119.5 -49t-119 49t-49.5 121z" />
<glyph unicode="j" horiz-adv-x="606" d="M-270 -422q0 8 4 21l53 147q8 18 20 18q4 0 44 -18t77 -18q45 0 78 23.5t53.5 71.5t29.5 82t22 95q2 14 4 20l170 807h-156q-27 0 -27 21q0 8 4 24l23 115q4 25 31 25h379q25 0 24 -21q0 -10 -4 -26l-199 -945q-14 -63 -19 -89.5t-24.5 -91t-38 -97.5t-52 -82 t-72.5 -73.5t-96.5 -44t-127 -19.5t-135 19.5t-65.5 35.5zM334 1315q0 74 51 121t116.5 47t118 -48.5t52.5 -120t-50.5 -120.5t-120 -49t-118.5 49t-49 121z" />
<glyph unicode="k" horiz-adv-x="985" d="M33 20q0 10 6 41l289 1344q2 12 4 17t10 10.5t23 7.5l180 37q25 6 28 6q10 0 11 -23q0 -2 -6 -39l-177 -817l5 -4l456 408q45 39 51 39q8 0 23 -15l94 -110q8 -12 12 -23q0 -10 -22 -27l-395 -331l209 -357q49 -84 49 -86q0 -20 -17 -30l-164 -97q-12 -6 -20 -6 q-6 0 -35 53l-270 469l-98 -462q-2 -16 -7.5 -20.5t-21.5 -4.5h-191q-26 0 -26 20z" />
<glyph unicode="l" horiz-adv-x="569" d="M68 137q0 109 24 217l227 1051q2 12 4.5 17t10.5 10.5t22 7.5l181 37q25 6 28 6q10 0 10 -21q0 -4 -6 -41l-231 -1065q-25 -119 -25 -129q0 -41 47 -41q20 0 47 7.5t29 7.5q12 0 15 -15l20 -141q0 -4 1 -10t1 -10q0 -23 -71.5 -41.5t-135.5 -18.5q-96 0 -147 39t-51 133z " />
<glyph unicode="m" horiz-adv-x="1554" d="M35 20q0 2 1 10.5t1 12.5l139 616q25 102 25 168q0 33 -9.5 72t-9.5 55q0 12 25 23l164 63q18 6 20 7q16 0 28.5 -60.5t12.5 -146.5q45 53 78 87t109.5 77t152.5 43q174 0 174 -209h4q139 209 342 209q182 0 183 -216q0 -74 -21 -159l-149 -647q-2 -16 -7.5 -20.5 t-21.5 -4.5h-191q-27 0 -26 20q0 2 1 10.5t1 12.5l135 584q18 74 18 125q0 80 -61 79q-55 0 -102 -39.5t-80 -106.5t-53.5 -128t-34.5 -127l-88 -405q-2 -16 -7.5 -20.5t-21.5 -4.5h-191q-27 0 -26 20q0 2 1 10.5t1 12.5l133 584q20 82 21 125q0 80 -72 79 q-70 0 -128.5 -73.5t-87 -154.5t-48.5 -173l-88 -405q-2 -16 -7.5 -20.5t-21.5 -4.5h-191q-26 0 -26 20z" />
<glyph unicode="n" horiz-adv-x="1062" d="M37 20q0 2 1 10.5t1 12.5l139 616q25 102 25 168q0 33 -9.5 72t-9.5 55q0 12 25 23l164 63q18 6 20 7q16 0 28.5 -60.5t12.5 -146.5q45 53 78 87t109.5 77t152.5 43q96 0 151.5 -62.5t55.5 -153.5q0 -74 -20 -159l-150 -647q-2 -16 -7 -20.5t-22 -4.5h-190q-27 0 -27 20 q0 2 1 10.5t1 12.5l135 584q18 74 19 125q0 80 -62 79q-66 0 -118 -38.5t-85.5 -109.5t-51 -126t-33.5 -127l-88 -405q-2 -16 -7.5 -20.5t-21.5 -4.5h-191q-26 0 -26 20z" />
<glyph unicode="o" horiz-adv-x="1024" d="M45 338q0 291 166 500t416 209q336 0 336 -373q0 -291 -163 -500t-407 -209q-348 0 -348 373zM305 319q0 -150 125 -149q68 0 122 53t86 134t48 168t16 167q0 150 -124 150q-68 0 -122.5 -53.5t-86 -134.5t-48 -168t-16.5 -167z" />
<glyph unicode="p" horiz-adv-x="1062" d="M-47 -416q0 8 4 24.5t4 18.5l234 1098q8 37 8 106q-2 27 -9.5 70t-7.5 53q0 12 25 23l164 63q18 6 24 7q16 0 27.5 -53.5t11.5 -131.5q82 94 137 129q86 55 191 56q223 0 223 -308q0 -129 -32.5 -260t-93 -248.5t-164 -191.5t-230.5 -74q-88 0 -178 51l-80 -372 q-2 -12 -4 -17.5t-10.5 -10.5t-22.5 -7l-180 -37q-25 -6 -31 -6q-10 0 -10 18zM328 197q82 -41 131 -41q74 0 132 54t90 139t47 175t15 176q0 141 -98 142q-88 0 -153.5 -92.5t-92.5 -214.5z" />
<glyph unicode="q" horiz-adv-x="1062" d="M72 297q0 188 62.5 360t177 281t249.5 109q31 0 57.5 -5.5t49 -14.5t39 -18.5t33.5 -24.5l25 -21q7 -6 21 -21l13 -16q84 121 112 121q6 0 31 -13l125 -67q14 -8 14 -21q0 -6 -25.5 -45t-57 -101.5t-44.5 -123.5l-211 -1032q-2 -12 -4 -17.5t-10 -10.5t-22 -7l-181 -37 q-25 -6 -30 -6q-10 0 -11 18q0 8 4.5 24.5t4.5 18.5l65 320q6 31 47 184l-4 4q-125 -170 -305 -170q-104 0 -164.5 85t-60.5 247zM317 287q0 -117 89 -117q100 0 167.5 83t94.5 202l71 333q-4 2 -17 14.5t-20.5 17.5l-22.5 14.5t-27.5 14.5t-31 9t-36.5 4q-82 0 -145.5 -96 t-92.5 -224t-29 -255z" />
<glyph unicode="r" horiz-adv-x="720" d="M33 20q-2 6 2 23l139 616q25 123 25 168q0 33 -9.5 72t-9.5 55q0 12 25 23l164 63q18 6 20 7q16 0 28.5 -60.5t12.5 -146.5q2 2 31 34l42 48q13 14 46 42.5t59.5 43t64.5 27t75 12.5q70 0 69 -27q0 -4 -4 -16l-86 -207q-6 -10 -12 -11q-4 0 -27.5 7.5t-42.5 7.5 q-74 0 -135 -67.5t-94 -145.5t-49 -158l-88 -405q-4 -16 -9.5 -20.5t-19.5 -4.5h-191q-26 0 -26 20z" />
<glyph unicode="s" horiz-adv-x="796" d="M-35 59q0 6 4 23l43 127q6 14 15 14l90 -37q90 -37 170 -36q182 0 182 137q0 33 -18.5 55.5t-39 33.5t-66.5 31.5t-75 36.5q-68 37 -97.5 58.5t-54 67.5t-24.5 114q0 162 107.5 262.5t283.5 100.5q88 0 178.5 -29t90.5 -66q0 -4 -4 -16l-43 -119q-6 -14 -17 -14 q-12 0 -79.5 29.5t-121.5 29.5q-80 0 -119.5 -35.5t-39.5 -91.5q0 -47 31.5 -74.5t102.5 -56.5t91 -41q82 -47 116 -94t34 -141q0 -164 -106.5 -263.5t-299.5 -99.5q-72 0 -152.5 18.5t-131 40t-50.5 35.5z" />
<glyph unicode="t" horiz-adv-x="796" d="M102 848q0 10 4 26l25 113q2 25 29 25h143l53 254q4 18 27 22l186 27q4 0 12.5 1t14.5 1q14 0 14 -19q0 -8 -4 -28l-57 -258h274q29 0 29 -21q0 -6 -4 -15t-4 -13l-41 -115q-8 -20 -29 -21h-264l-98 -485q-14 -57 -15 -98q0 -74 80 -74q41 0 84 11.5t70.5 23.5t30.5 12 q10 0 16 -14l31 -129q0 -4 1 -10.5t1 -8.5q0 -25 -116 -57.5t-212 -32.5q-246 0 -246 207q0 61 17 131l110 524h-135q-27 1 -27 21z" />
<glyph unicode="u" horiz-adv-x="1062" d="M68 180q0 66 22 160l150 641q2 12 6 16t22 9l168 34l31 7q29 0 29 -21q0 -14 -4 -31l-146 -610q-18 -92 -18 -125q0 -80 61 -80q207 0 291 402l88 399q2 12 6 16t23 9l168 34l30 7q29 0 29 -21q0 -8 -4 -25l-150 -649q-25 -123 -24 -168q0 -33 9 -71.5t9 -55.5 q0 -12 -24 -22l-164 -64q-18 -6 -21 -6q-16 0 -28.5 60.5t-12.5 146.5q-45 -53 -77.5 -87t-109.5 -77t-153 -43q-96 0 -151 62.5t-55 152.5z" />
<glyph unicode="v" horiz-adv-x="948" d="M113 987q0 18 30 21l152 20q33 4 43 4q20 0 20 -41l31 -473q8 -131 8 -274h4q37 109 119 274l244 498q8 16 22 16q4 0 8.5 -1t12.5 -2t14 -1l152 -20q31 -2 31 -21l-15 -29l-530 -960q-10 -18 -29 -18h-170q-27 0 -29 26l-116 955q-2 10 -2 26z" />
<glyph unicode="w" horiz-adv-x="1366" d="M137 958q-2 12 2 27q0 18 25 21l147 20q33 4 43 4q20 0 21 -41l-8 -471q0 -18 -5.5 -142t-5.5 -132h4q27 100 103 274l203 473q8 20 28 21h180q16 0 22.5 -6.5t6.5 -22.5v-500q0 -47 -8 -135t-8 -104h4q35 127 98 274l211 496q8 16 23 16q4 0 8 -1t12 -2t14 -1l148 -20 q25 -2 25 -21q0 -12 -9 -29l-483 -956q-10 -18 -29 -18h-180h-11q-3 0 -8 3t-7.5 8t-2.5 15l13 557q2 29 16 180l-4 5q-23 -86 -68 -185l-249 -565q-10 -18 -29 -18h-164q-27 0 -29 26z" />
<glyph unicode="x" horiz-adv-x="948" d="M-84 71.5q0 10.5 12 22.5l414 424l-201 414q-10 20 -10 26q0 8 21 17l165 49q18 6 29 6q14 0 21 -12l79 -205l50 -127l102 123l182 209q12 12 21 12l18 -6l158 -70q20 -8 20 -22q0 -8 -12 -21l-383 -389l227 -444l5 -8q4 -10 4 -15q0 -12 -17 -18l-184 -49q-4 0 -11.5 -3 t-9.5 -3q-12 0 -16 14l-100 229q-45 104 -54 129q-53 -72 -104 -131l-205 -227q-14 -14 -18 -14q-6 0 -19 6l-168 65q-16 8 -16 18.5z" />
<glyph unicode="y" horiz-adv-x="985" d="M-150 -350l7 18l73 129q10 16 19 17q6 0 57 -21.5t96 -21.5q119 0 174 102l68 127h-84q-27 0 -29 27l-108 931q-2 10 -2 27q0 18 31 21l151 20q33 4 43 4q12 0 14 -7t7 -34l36 -471q18 -236 19 -368h4q61 193 131 342l238 522q8 16 20 16l37 -4l152 -20q31 -2 30 -15 q0 -6 -14 -35l-406 -837l-40 -85l-45 -95q-15 -33 -47.5 -90.5t-57.5 -90t-63.5 -74.5t-76.5 -63.5t-88.5 -38t-103.5 -16.5t-111.5 16.5t-94.5 36t-36 31.5z" />
<glyph unicode="z" horiz-adv-x="909" d="M-37 18q0 4 4 25l27 131l612 633h-405q-27 0 -27 20q0 6 4 27l29 133q6 25 29 25h661q27 0 27 -21q0 -8 -4 -24l-29 -140l-600 -622h489q23 0 23 -23q0 -6 -10 -20l-93 -144q-12 -18 -32 -18h-676q-29 0 -29 18z" />
<glyph unicode="{" horiz-adv-x="833" d="M66 461q0 20 4 31l30 137q2 18 9.5 23t27.5 5h47q82 0 121 36t53 112l62 285q82 379 481 378q35 0 35 -22q0 -12 -4 -33l-29 -129q-4 -20 -10 -25.5t-25 -5.5q-94 0 -133 -28q-47 -37 -63 -117l-68 -313q-23 -106 -66.5 -156.5t-125.5 -89.5q29 -18 45 -31.5t34.5 -47.5 t18.5 -77t-10 -94l-78 -352q-8 -37 -8 -58q0 -88 139 -88q29 0 29 -24q0 -8 -4.5 -25.5t-4.5 -19.5l-24 -115q-4 -18 -12.5 -24.5t-36.5 -6.5q-332 0 -332 258q0 53 14 121l68 326q6 25 6 51q0 57 -35 75.5t-98 18.5h-23q-34 0 -34 25z" />
<glyph unicode="|" horiz-adv-x="819" d="M307 -477v1978q0 23 6 29t29 6h135q23 0 29 -6t6 -29v-1978q0 -23 -6 -29t-29 -6h-135q-23 0 -29 6t-6 29z" />
<glyph unicode="}" horiz-adv-x="833" d="M-102 -391q0 12 4 33l28 129q4 20 10.5 25t24.5 5q94 0 133 29q47 37 64 117l67 313q23 106 67 156.5t126 89.5q-29 18 -45.5 31.5t-34.5 47t-18 77t10 94.5l78 352q8 37 8 57q0 88 -139 88q-29 0 -29 25q0 8 4 25.5t4 19.5l25 115q4 18 12 24t37 6q332 0 332 -258 q0 -53 -15 -120l-67 -326q-6 -25 -6 -51q0 -57 34.5 -76t98.5 -19h22q35 0 35 -24q0 -20 -4 -31l-31 -137q-2 -18 -9 -23.5t-28 -5.5h-47q-82 0 -121 -35.5t-53 -111.5l-61 -285q-82 -379 -482 -379q-34 0 -34 23z" />
<glyph unicode="~" d="M61 348q0 57 9.5 112.5t34 122t80 107.5t134.5 41q104 0 246 -84l78 -45q154 -94 221 -94q92 0 111 180q2 8 2 12h123q0 -57 -9.5 -112.5t-34 -122t-79.5 -107.5t-135 -41q-104 0 -246 84l-78 45q-154 94 -221 95q-92 0 -111 -181q-2 -8 -2 -12h-123z" />
<glyph unicode="&#xa1;" horiz-adv-x="720" d="M35 -391q0 8 4 24l223 832q6 20 12.5 24.5t24.5 4.5h123q35 0 35 -27q0 -14 -6 -39l-127 -805q-4 -25 -10.5 -31t-26.5 -6h-217q-35 0 -35 23zM268 882.5q0 67.5 48.5 116t116 48.5t115.5 -47.5t48 -117t-48 -116.5t-115.5 -47t-116 48t-48.5 115.5z" />
<glyph unicode="&#xa2;" d="M236 545q0 145 36.5 265t94 195.5t130 127t140.5 73t131 21.5l25 121q2 18 9 23t27 5h48q35 0 34 -22l-6 -31l-20 -100q31 0 112.5 -33t81.5 -55q0 -4 -6 -17l-82 -133q-8 -12 -20 -12q-6 0 -19.5 10t-41 25.5t-66.5 23.5l-144 -678q23 6 50.5 19.5t47 24t25.5 10.5 t15 -13l53 -135q4 -12 4 -18q0 -31 -92 -58.5t-148 -33.5l-24 -121q-4 -20 -12.5 -24.5t-38.5 -4.5h-33q-35 0 -35 25q0 6 3 16t3 12l21 97q-303 61 -303 395zM471 524q0 -59 22.5 -98t42 -50t52.5 -22l143 682q-86 -2 -173 -157.5t-87 -354.5z" />
<glyph unicode="&#xa3;" d="M20 23l7 30l28 133q4 29 37 29h156q37 74 52 108.5t28.5 108.5t13.5 176h-180q-35 0 -35 23l6 31l25 108q2 18 9 23.5t28 5.5h137q-6 43 -6 86q0 246 156.5 382t383.5 136q125 0 234.5 -40t109.5 -75q0 -8 -10 -28l-65 -123q-14 -25 -37 -25q-12 0 -44 19.5t-85.5 38 t-116.5 18.5q-139 0 -215 -90t-76 -238q0 -10 3 -30.5t3 -30.5h297q35 0 35 -23l-6 -31l-25 -108q-4 -18 -10 -23.5t-27 -5.5h-253q0 -10 2 -32.5t2 -34.5q0 -141 -88 -326h546q31 0 31 -16q0 -12 -12 -41l-64 -133q-8 -16 -13 -20.5t-21 -4.5h-904q-37 0 -37 23z" />
<glyph unicode="&#xa4;" d="M104 1145l66 63l141 -139q131 94 281 94q147 0 278 -94l142 139l65 -63l-143 -144q98 -100 98 -282q0 -170 -96 -279l137 -137l-61 -61l-135 135q-129 -96 -285 -96q-164 0 -287 96l-135 -135l-61 61l137 137q-96 104 -96 279q0 162 98 282zM233 718.5 q0 -147.5 105.5 -250.5t253.5 -103q145 0 250.5 104t105.5 250q0 147 -104.5 253.5t-252 106.5t-253 -106.5t-105.5 -254z" />
<glyph unicode="&#xa5;" horiz-adv-x="1062" d="M49 565q0 10 4 27l4 16q6 20 12.5 25.5t24.5 5.5h271l-31 98h-209q-35 0 -35 21q0 10 4 26l4 17q6 20 12.5 25t24.5 5h170l-147 496q-2 10 -2 23q0 16 32 22l189 49q4 0 12 1t10 1q16 0 27 -37l80 -301q35 -125 45 -268h4q80 150 162 270l211 314q16 23 26 22 q2 0 13.5 -2t17.5 -2l182 -51q29 -6 29 -22q0 -18 -8 -27l-357 -488h193q35 0 35 -20q0 -10 -4 -27l-4 -16q-6 -20 -12.5 -25.5t-24.5 -5.5h-252l-72 -98h293q35 0 35 -21q0 -10 -4 -26l-4 -17q-6 -20 -12.5 -25t-24.5 -5h-332l-106 -516q-4 -18 -11.5 -23.5t-25.5 -5.5 h-199q-31 0 -31 23q0 14 4 30l109 492h-297q-35 0 -35 20z" />
<glyph unicode="&#xa6;" horiz-adv-x="819" d="M307 -324v648q0 23 7.5 28.5t27.5 5.5h135q20 0 27.5 -6t7.5 -28v-648q0 -20 -6 -27t-29 -7h-135q-20 0 -27.5 7t-7.5 27zM307 700v648q0 20 7.5 27t27.5 7h135q20 0 27.5 -7t7.5 -27v-648q0 -20 -6 -27t-29 -7h-135q-20 0 -27.5 7t-7.5 27z" />
<glyph unicode="&#xa7;" d="M59 -109q0 12 13 33l61 113q10 20 27 20q10 0 50 -28.5t106.5 -58t142.5 -29.5q137 0 137 125q0 51 -34 83.5t-125 78.5t-130 73q-152 98 -151 262q0 76 28.5 134.5t79.5 95t86 54t82 34.5q-35 25 -57.5 44t-47 67t-24.5 110q0 145 108.5 240.5t286.5 95.5 q121 0 226.5 -45t105.5 -78q0 -6 -10 -27l-62 -108q-10 -16 -24 -17q-12 0 -43 20.5t-82 42t-113 21.5q-66 0 -106.5 -27.5t-40.5 -78.5q0 -39 40 -71t119.5 -73t120.5 -71q82 -57 122 -116.5t40 -154.5q0 -215 -266 -311q137 -96 137 -243.5t-110.5 -249t-292.5 -101.5 q-88 0 -185.5 27.5t-156 61.5t-58.5 52zM401 598q0 -16 5.5 -31.5t11.5 -27t19.5 -24.5t21.5 -19.5t26.5 -17.5t24.5 -14l26 -13l21 -11q39 16 60.5 26.5t57.5 34t53 54.5t17 70t-29.5 74.5t-47.5 46.5l-64 38q-53 -20 -86 -34.5t-75 -57.5t-42 -94z" />
<glyph unicode="&#xa8;" horiz-adv-x="737" d="M217 1296.5q0 59.5 42 101.5t101 42q57 0 99.5 -42t42.5 -101.5t-41 -100.5t-100.5 -41t-101.5 41t-42 100.5zM610 1296.5q0 59.5 42 101.5t102 42q57 0 99 -42t42 -101.5t-41 -100.5t-100.5 -41t-101.5 41t-42 100.5z" />
<glyph unicode="&#xa9;" d="M156 956.5q0 198.5 141 340t340 141.5t340 -141.5t141 -340t-141 -340t-340 -141.5t-340 141.5t-141 340zM227 956q0 -170 120 -289.5t290 -119.5t290 119.5t120 289.5t-120 290t-290 120t-290 -120t-120 -290zM381 965q0 115 84 194.5t194 79.5q106 0 195 -80l-53 -67 q-70 63 -141.5 63t-131 -52t-59.5 -138q0 -88 58.5 -139.5t125.5 -51.5q80 0 148 62l53 -66q-88 -80 -195 -80q-113 0 -195.5 79t-82.5 196z" />
<glyph unicode="&#xaa;" horiz-adv-x="909" d="M205 913q0 199 101.5 344.5t238.5 145.5q98 0 145 -88l21 45q8 18 26 18h125q23 0 23 -18q0 -10 -6 -35l-86 -399q-12 -53 -13 -86q0 -29 7.5 -57.5t7.5 -32.5q0 -16 -23 -23l-121 -39q-25 -6 -26 -6q-6 0 -11.5 10t-8.5 26.5t-5 32t-3 31t-1 17.5q-100 -117 -221 -117 q-80 0 -125 59t-45 172zM410 903q0 -68 45 -67q57 0 101 46t60 126l46 215q-55 37 -95 37q-72 0 -114.5 -118t-42.5 -239z" />
<glyph unicode="&#xab;" horiz-adv-x="1214" d="M84 512q0 14 10 23l473 462q14 14 25 15q8 0 24 -13l86 -73q18 -18 19 -25q0 -4 -14 -24l-347 -388l166 -374q0 -2 4.5 -11.5t4.5 -15.5q0 -14 -17 -22l-119 -56q-25 -10 -28 -10q-14 0 -25 20l-256 472q-6 8 -6 20zM575 512q0 14 11 23l473 462q14 14 24 15q8 0 25 -13 l86 -73q18 -18 18 -25q0 -4 -14 -24l-346 -388l166 -374q0 -2 4 -11.5t4 -15.5q0 -14 -16 -22l-119 -56q-25 -10 -29 -10q-14 0 -24 20l-256 472q-7 8 -7 20z" />
<glyph unicode="&#xac;" d="M102 621v135q0 20 7.5 27.5t27.5 7.5h862q20 0 27.5 -6.5t7.5 -28.5v-461q0 -20 -7 -27.5t-28 -7.5h-135q-20 0 -27.5 7t-7.5 28v291h-692q-23 0 -29 6t-6 29z" />
<glyph unicode="&#xad;" horiz-adv-x="681" d="M68 424q0 8 6 45l30 137q6 20 12.5 25.5t24.5 5.5h424q35 0 35 -23q0 -8 -6 -45l-31 -137q-6 -20 -12 -25.5t-25 -5.5h-424q-34 0 -34 23z" />
<glyph unicode="&#xae;" d="M154 956.5q0 198.5 141 340t340 141.5t340 -141.5t141 -340t-141 -340t-340 -141.5t-340 141.5t-141 340zM225 956q0 -170 121 -289.5t289 -119.5t288.5 119.5t120.5 289.5t-120.5 290t-288.5 120t-289 -120t-121 -290zM453 715v508h170q59 0 99 -9.5t73.5 -47.5 t33.5 -107q0 -41 -18 -69.5t-29 -34.5l-41 -21l95 -219h-103l-80 205h-108v-205h-92zM545 1001h110q78 0 78 66q0 68 -86 68h-102v-134z" />
<glyph unicode="&#xaf;" horiz-adv-x="737" d="M270 1227q0 20 4 30l21 101q4 31 37 31h430q35 0 35 -23q0 -20 -4 -31l-21 -100q-4 -31 -45 -31h-422q-35 0 -35 23z" />
<glyph unicode="&#xb0;" d="M348 1114q0 135 95.5 229.5t226.5 94.5q135 0 229 -94.5t94 -229.5q0 -133 -95 -227t-228 -94t-227.5 94t-94.5 227zM516 1114.5q0 -65.5 45 -109.5t109 -44q66 0 110.5 45t44.5 108q0 66 -46 111t-109.5 45t-108.5 -45t-45 -110.5z" />
<glyph unicode="&#xb1;" d="M104 47q0 20 7.5 27.5t27.5 7.5h860q20 0 27.5 -6t7.5 -29v-135q0 -23 -7 -29t-28 -6h-860q-20 0 -27.5 6t-7.5 29v135zM104 459v135q0 20 7.5 27.5t27.5 7.5h328v327q0 23 6 29t29 6h135q23 0 29 -6t6 -29v-327h327q20 0 27.5 -7.5t7.5 -27.5v-135q0 -20 -7 -27.5 t-28 -7.5h-327v-234q0 -23 -6.5 -28.5t-28.5 -5.5h-135q-23 0 -29 6t-6 28v234h-328q-20 0 -27.5 7.5t-7.5 27.5z" />
<glyph unicode="&#xb2;" horiz-adv-x="720" d="M90 563q0 117 103 244q45 53 117.5 104.5t127 82t96 76.5t41.5 97q0 68 -71 68q-47 0 -80 -30.5t-54.5 -61.5t-39.5 -31q-10 0 -19 4l-73 33q-18 8 -19 22q0 18 20.5 52t58.5 72t102.5 66t140.5 28q102 0 160.5 -53.5t58.5 -153.5q0 -96 -46 -152.5t-165 -138.5 q-35 -25 -103.5 -65t-96 -64.5t-42.5 -61.5h305q33 0 33 -24q0 -4 -2 -10.5t-2 -10.5l-16 -80q-6 -29 -37 -28h-473q-25 0 -25 16z" />
<glyph unicode="&#xb3;" horiz-adv-x="720" d="M78 598q0 8 6 18l41 86q6 18 27 19q6 0 29.5 -10.5t64.5 -20.5t88 -10q72 0 113.5 37t41.5 98q0 51 -35.5 67.5t-97.5 16.5h-41q-33 0 -32 21q0 6 4 22l16 84q2 27 37 27h51q72 0 111 33.5t39 89.5q0 59 -66 59q-53 0 -104.5 -34t-55.5 -34q-10 0 -18 9l-64 53 q-10 6 -10 16q0 18 35 51t101.5 63t138.5 30q106 0 166.5 -49.5t60.5 -133.5q0 -80 -35 -125t-115 -94q2 -2 16.5 -10t18.5 -11t15.5 -12.5t16.5 -16.5t12.5 -19.5t10.5 -24.5t6 -30.5t3 -39.5q0 -135 -97.5 -216t-254.5 -81q-80 0 -162 24.5t-82 47.5z" />
<glyph unicode="&#xb4;" horiz-adv-x="737" d="M258 1249q0 12 23 25l364 196q18 12 33 13q12 0 24 -25l50 -119q10 -25 10 -30q0 -16 -27 -27l-385 -139q-25 -8 -33 -8q-12 0 -22 24l-27 60q-10 16 -10 30z" />
<glyph unicode="&#xb5;" horiz-adv-x="1062" d="M-47 -414q0 14 4 31l283 1364q2 12 6 16t22 9l168 34l31 7q29 0 29 -21q0 -4 -2 -15.5t-2 -15.5l-127 -610q-20 -82 -21 -125q0 -80 57 -80q195 0 279 402l88 399q2 12 6 16t23 9l168 34l30 7q29 0 29 -21q0 -8 -4 -25l-150 -649q-25 -123 -24 -168q0 -33 9 -71.5 t9 -55.5q0 -12 -24 -22l-164 -64q-18 -6 -21 -6q-16 0 -28.5 60.5t-12.5 146.5h-4l-23 -35q-19 -29 -32.5 -46t-38 -44t-46 -42t-52.5 -27.5t-64 -12.5q-53 0 -71 29l-74 -363q-2 -12 -6 -16t-23 -8l-168 -35l-30 -6q-29 0 -29 20z" />
<glyph unicode="&#xb6;" horiz-adv-x="1441" d="M172 854q0 147 34 253.5t83 162t130 87.5t147.5 39t162.5 7h680q27 0 35 -7t8 -34v-102q0 -27 -8 -34t-35 -7h-117v-1559q0 -27 -7 -34t-34 -7h-123q-27 0 -34 7t-7 34v1559h-139v-1559q0 -27 -7 -34t-34 -7h-123q-27 0 -34 7t-7 34v670q-66 -16 -125 -17 q-215 0 -330.5 143.5t-115.5 397.5zM432 879q0 -197 52.5 -286t181.5 -89q33 0 77 10v705q-49 0 -80.5 -3.5t-71.5 -13.5t-65.5 -32.5t-48 -58.5t-34 -95t-11.5 -137z" />
<glyph unicode="&#xb7;" d="M412 524q0 66 45 112t110.5 46t111.5 -46t46 -112q0 -63 -46 -109t-112 -46q-63 0 -109 46t-46 109z" />
<glyph unicode="&#xb8;" horiz-adv-x="737" d="M170 -412q0 6 4 23l25 78q4 14 12 14q2 0 32.5 -10t55.5 -10q33 0 52.5 16t19.5 41q0 45 -76 45q-37 0 -37 14q0 6 4 23l51 178h164l-35 -115q123 -16 123 -129q0 -94 -62.5 -150.5t-174.5 -56.5q-63 0 -110.5 11.5t-47.5 27.5z" />
<glyph unicode="&#xb9;" horiz-adv-x="720" d="M147 569q0 8 5 21l12 61q4 29 37 29h118l107 498l-111 -56q-20 -10 -28 -10q-14 0 -23 21l-20 43q-8 16 -8 24q0 16 20 27l233 133q14 8 35 8h78q31 0 31 -20q0 -14 -2 -21l-137 -647h84q29 0 28 -23q0 -8 -4 -20l-12 -62q-4 -29 -37 -28h-377q-29 -1 -29 22z" />
<glyph unicode="&#xba;" horiz-adv-x="909" d="M227 936q0 197 117 332t291 135q240 0 239 -254q0 -197 -113.5 -332t-285.5 -135q-248 0 -248 254zM432 930q0 -94 72 -94q78 0 122 104t44 215q0 94 -72 94q-80 0 -123 -103t-43 -216z" />
<glyph unicode="&#xbb;" horiz-adv-x="1214" d="M0 111q0 4 14 24l346 387l-165 375q0 2 -4.5 11.5t-4.5 15.5q0 14 17 22l119 55q25 10 28 11q14 0 25 -21l256 -471q6 -8 6 -20q0 -14 -10 -23l-473 -463q-14 -14 -25 -14q-8 0 -25 12l-86 74q-18 19 -18 25zM492 111q0 4 14 24l346 387l-166 375q0 2 -4 11.5t-4 15.5 q0 14 16 22l119 55q25 10 29 11q14 0 24 -21l256 -471q6 -8 6 -20q0 -14 -10 -23l-473 -463q-14 -14 -24 -14q-8 0 -25 12l-86 74q-18 19 -18 25z" />
<glyph unicode="&#xbc;" horiz-adv-x="1705" d="M127 569q0 8 4 21l12 61q4 29 37 29h119l107 498l-111 -56q-20 -10 -29 -10q-14 0 -22 21l-21 43q-8 16 -8 24q0 16 21 27l233 133q14 8 35 8h78q31 0 30 -20q0 -14 -2 -21l-137 -647h84q29 0 29 -16q0 -14 -4 -27l-13 -62q-4 -29 -37 -28h-376q-29 -1 -29 22zM418 -16 q0 14 12 34l756 1362q12 23 37 23h127q35 0 34 -19q0 -20 -12 -41l-756 -1357q-10 -20 -36 -21h-127q-35 1 -35 19zM958 201q0 14 3 20l24 111q4 18 19 35l413 485q10 14 25 14q4 0 22 -6l82 -37q20 -10 20.5 -22.5t-10.5 -22.5l-397 -465h168l78 199q10 25 37 25h67 q31 0 31 -17q0 -12 -4 -24l-35 -177h62q33 0 32 -18q0 -12 -4 -25l-14 -69q-4 -16 -10 -22.5t-27 -6.5h-67l-33 -149q-6 -29 -37 -29h-105q-33 0 -32 23q0 8 4 20l28 137h-309q-31 1 -31 21z" />
<glyph unicode="&#xbd;" horiz-adv-x="1705" d="M115 569q0 8 4 21l12 61q4 29 37 29h119l106 498l-110 -56q-20 -10 -29 -10q-14 0 -23 21l-20 43q-8 16 -8 24q0 16 20 27l234 133q14 8 35 8h77q31 0 31 -20q0 -14 -2 -21l-137 -647h84q29 0 28 -23q0 -8 -4 -20l-12 -62q-4 -29 -37 -28h-377q-28 -1 -28 22zM356 -16 q0 14 13 34l755 1362q12 23 37 23h127q35 0 35 -19q0 -20 -12 -41l-756 -1357q-10 -20 -37 -21h-127q-35 1 -35 19zM958 16q0 117 103 244q45 53 117.5 104.5t127 82t96.5 76.5t42 98q0 68 -72 67q-47 0 -79.5 -30.5t-54 -61.5t-40.5 -31q-10 0 -18 4l-74 33q-18 8 -19 23 q0 18 20.5 52t58.5 71.5t102.5 65.5t140.5 28q102 0 160.5 -53.5t58.5 -153.5q0 -96 -46 -152.5t-165 -138.5q-35 -25 -103.5 -64.5t-96 -64.5t-41.5 -61h305q33 0 32 -25q0 -2 -2 -10t-2 -10l-16 -80q-6 -29 -37 -29h-473q-25 0 -25 16z" />
<glyph unicode="&#xbe;" horiz-adv-x="1705" d="M66 598q0 8 6 18l41 86q6 18 26 19q6 0 30 -10.5t64.5 -20.5t88.5 -10q72 0 113.5 37t41.5 98q0 51 -35.5 67.5t-97.5 16.5h-41q-33 0 -33 21q0 6 4 22l17 84q2 27 37 27h51q72 0 110.5 33.5t38.5 89.5q0 59 -65 59q-53 0 -104.5 -34t-55.5 -34q-10 0 -18 9l-64 53 q-10 6 -10 16q0 18 35 51t101.5 63t137.5 30q106 0 167 -49.5t61 -133.5q0 -80 -35 -125t-115 -94q2 -2 16.5 -10t18.5 -11t15.5 -12.5t16.5 -16.5t12 -19.5t10 -24.5t6.5 -30.5t3.5 -39.5q0 -135 -97.5 -216t-255.5 -81q-80 0 -161.5 24.5t-81.5 47.5zM438 -16q0 14 13 34 l755 1362q12 23 37 23h127q35 0 35 -19q0 -20 -12 -41l-756 -1357q-10 -20 -37 -21h-127q-35 1 -35 19zM997 201q0 14 2 20l25 111q4 18 18 35l414 485q10 14 25 14q4 0 22 -6l82 -37q20 -10 20.5 -22.5t-10.5 -22.5l-397 -465h168l78 199q10 25 37 25h67q31 0 31 -17 q0 -12 -4 -24l-35 -177h62q33 0 32 -18q0 -12 -4 -25l-14 -69q-4 -16 -10.5 -22.5t-26.5 -6.5h-68l-32 -149q-6 -29 -37 -29h-105q-33 0 -32 23q0 8 4 20l28 137h-309q-31 1 -31 21z" />
<glyph unicode="&#xbf;" horiz-adv-x="948" d="M-55 -121q0 106 42 190.5t111.5 134.5t134 77.5t129.5 42.5l33 151q4 20 10.5 24.5t24.5 4.5h166q31 0 31 -23q0 -4 -6 -28l-52 -246q-2 -12 -14 -25.5t-29 -15.5q-305 -51 -305 -238q0 -127 141 -127q72 0 158 33t92 33q14 0 19 -17l57 -145q8 -16 8 -24q0 -31 -142 -73 t-257 -42q-162 0 -257 87t-95 226zM422 882.5q0 67.5 48 116t115.5 48.5t116 -47.5t48.5 -117t-48.5 -116.5t-116 -47t-115.5 48t-48 115.5z" />
<glyph unicode="&#xc0;" horiz-adv-x="1175" d="M-35 23q0 2 10 26l674 1335q8 18 37 19h197q18 0 26.5 -5t10.5 -30l118 -1319q0 -4 1 -10t1 -10q0 -29 -34 -29h-215q-27 0 -27 23l-14 350h-349l-157 -344q-16 -25 -25 -27q-6 -2 -16 -2h-211q-27 0 -27 23zM463 1716q0 16 14 33l80 115q12 23 33 22q8 0 31 -16 l280 -225q10 -10 10 -17q0 -4 -4 -10l-10 -15q-6 -9 -8 -14l-29 -41q-16 -23 -29 -22q-10 0 -34 12l-316 152q-18 8 -18 26zM469 557h274l-18 356q-8 139 -8 211h-4q-6 -27 -19.5 -58.5l-36 -80.5t-32.5 -74z" />
<glyph unicode="&#xc1;" horiz-adv-x="1175" d="M-35 23q0 2 10 26l674 1335q8 18 37 19h197q18 0 26.5 -5t10.5 -30l118 -1319q0 -4 1 -10t1 -10q0 -29 -34 -29h-215q-27 0 -27 23l-14 350h-349l-157 -344q-16 -25 -25 -27q-6 -2 -16 -2h-211q-27 0 -27 23zM469 557h274l-18 356q-8 139 -8 211h-4q-6 -27 -19.5 -58.5 l-36 -80.5t-32.5 -74zM621 1640.5q0 14.5 22 24.5l365 197q18 12 32 12q12 0 25 -25l49 -118q10 -27 10 -31q0 -16 -26 -27l-385 -139q-25 -8 -33 -8q-12 0 -23 24l-26 60q-10 16 -10 30.5z" />
<glyph unicode="&#xc2;" horiz-adv-x="1175" d="M-35 23q0 2 10 26l674 1335q8 18 37 19h197q18 0 26.5 -5t10.5 -30l118 -1319q0 -4 1 -10t1 -10q0 -29 -34 -29h-215q-27 0 -27 23l-14 350h-349l-157 -344q-16 -25 -25 -27q-6 -2 -16 -2h-211q-27 0 -27 23zM469 557h274l-18 356q-8 139 -8 211h-4q-6 -27 -19.5 -58.5 l-36 -80.5t-32.5 -74zM506 1640q0 12 18 25l283 188q23 16 33 16.5t24 -14.5l183 -192q23 -29 22 -33q0 -6 -14 -24l-54 -60q-20 -20 -26 -20q-8 0 -25 12l-145 107l-195 -107q-25 -12 -32 -12q-14 0 -25 20l-33 62q-14 24 -14 32z" />
<glyph unicode="&#xc3;" horiz-adv-x="1175" d="M-35 23q0 2 10 26l674 1335q8 18 37 19h197q18 0 26.5 -5t10.5 -30l118 -1319q0 -4 1 -10t1 -10q0 -29 -34 -29h-215q-27 0 -27 23l-14 350h-349l-157 -344q-16 -25 -25 -27q-6 -2 -16 -2h-211q-27 0 -27 23zM465 1647q0 10 26.5 49t84 80t118.5 41q57 0 115.5 -37 t77.5 -37q33 0 65.5 36t38.5 36t19 -9l65 -53q14 -14 15 -22q0 -14 -30 -54.5t-87.5 -79t-116.5 -38.5q-61 0 -110.5 36.5t-71.5 36.5q-35 0 -69 -35.5t-40 -35.5q-8 0 -20 12l-70 57q-10 5 -10 17zM469 557h274l-18 356q-8 139 -8 211h-4q-6 -27 -19.5 -58.5l-36 -80.5 t-32.5 -74z" />
<glyph unicode="&#xc4;" horiz-adv-x="1175" d="M-35 23q0 2 10 26l674 1335q8 18 37 19h197q18 0 26.5 -5t10.5 -30l118 -1319q0 -4 1 -10t1 -10q0 -29 -34 -29h-215q-27 0 -27 23l-14 350h-349l-157 -344q-16 -25 -25 -27q-6 -2 -16 -2h-211q-27 0 -27 23zM467 1687.5q0 59.5 42 101.5t101 42q57 0 99.5 -42 t42.5 -101.5t-41 -100.5t-100.5 -41t-101.5 41t-42 100.5zM469 557h274l-18 356q-8 139 -8 211h-4q-6 -27 -19.5 -58.5l-36 -80.5t-32.5 -74zM860 1687.5q0 59.5 42 101.5t102 42q57 0 99 -42t42 -101.5t-41 -100.5t-100.5 -41t-101.5 41t-42 100.5z" />
<glyph unicode="&#xc5;" horiz-adv-x="1175" d="M-35 23q0 2 10 26l674 1335q8 18 37 19h197q18 0 26.5 -5t10.5 -30l118 -1319q0 -4 1 -10t1 -10q0 -29 -34 -29h-215q-27 0 -27 23l-14 350h-349l-157 -344q-16 -25 -25 -27q-6 -2 -16 -2h-211q-27 0 -27 23zM469 557h274l-18 356q-8 139 -8 211h-4q-6 -27 -19.5 -58.5 l-36 -80.5t-32.5 -74zM588 1714q0 90 62.5 152.5t150.5 62.5t151.5 -63.5t63.5 -151.5t-62.5 -150.5t-152.5 -62.5q-88 0 -150.5 62.5t-62.5 150.5zM717 1714q0 -35 25.5 -59.5t58.5 -24.5q35 0 60.5 24.5t25.5 59.5t-24.5 60.5t-61.5 25.5q-35 0 -59.5 -24.5t-24.5 -61.5z " />
<glyph unicode="&#xc6;" horiz-adv-x="1630" d="M-35 23q0 2 10 26l863 1335q14 18 36 19h842q23 0 29 -4t6 -19l-12 -30l-70 -136q-14 -27 -43 -26h-403l-74 -346h348q29 0 29 -23q0 -8 -4 -28l-29 -136q-4 -20 -10 -24t-27 -4h-352l-86 -412h440q35 0 35 -18q0 -4 -6 -35l-29 -133q-4 -18 -11 -23.5t-26 -5.5h-680 q-31 0 -30 23q0 14 4 30l65 318h-327l-205 -342q-18 -29 -33 -29h-223q-27 0 -27 23zM565 555h254l150 707l-4 4q-47 -125 -117 -242z" />
<glyph unicode="&#xc7;" horiz-adv-x="985" d="M100 446q0 195 44 371t127 315.5t219.5 222.5t306.5 83q111 0 211 -50.5t100 -91.5l-10 -20l-94 -141q-10 -12 -21 -13q-14 0 -76.5 47.5t-124.5 47.5q-125 0 -221 -125t-140 -297t-44 -349q0 -147 43 -203.5t143 -56.5q68 0 143.5 38t82 38t14.5 -14l51 -131l2 -8 q4 -8 4 -17q0 -33 -129 -80t-213 -47l-22 -80q123 -16 122 -129q0 -94 -62 -150.5t-175 -56.5q-63 0 -110.5 11.5t-47.5 27.5q0 6 4 23l25 78q4 14 12 14q2 0 33 -10t55 -10q33 0 52.5 16t19.5 41q0 45 -76 45q-37 0 -37 14q0 6 4 23l45 162q-125 41 -192.5 147t-67.5 315z " />
<glyph unicode="&#xc8;" horiz-adv-x="985" d="M66 23q0 14 4 30l280 1321q4 18 11.5 23.5t25.5 5.5h684q23 0 29 -4t6 -19l-12 -30l-70 -136q-16 -27 -43 -26h-403l-74 -346h348q29 0 29 -23q0 -8 -4 -28l-29 -136q-4 -20 -10.5 -24t-26.5 -4h-352l-86 -412h440q35 0 35 -16q0 -6 -6 -37l-29 -133q-4 -18 -11 -23.5 t-26 -5.5h-680q-30 0 -30 23zM369 1716q0 16 14 33l80 115q12 23 33 22q8 0 30 -16l281 -225q10 -10 10 -17q0 -4 -4 -10l-10 -15q-6 -9 -8 -14l-29 -41q-16 -23 -29 -22q-10 0 -35 12l-315 152q-18 8 -18 26z" />
<glyph unicode="&#xc9;" horiz-adv-x="985" d="M66 23q0 14 4 30l280 1321q4 18 11.5 23.5t25.5 5.5h684q23 0 29 -4t6 -19l-12 -30l-70 -136q-16 -27 -43 -26h-403l-74 -346h348q29 0 29 -23q0 -8 -4 -28l-29 -136q-4 -20 -10.5 -24t-26.5 -4h-352l-86 -412h440q35 0 35 -16q0 -6 -6 -37l-29 -133q-4 -18 -11 -23.5 t-26 -5.5h-680q-30 0 -30 23zM496 1640.5q0 14.5 22 24.5l365 197q18 12 32 12q12 0 25 -25l49 -118q10 -27 10 -31q0 -16 -26 -27l-385 -139q-25 -8 -33 -8q-12 0 -23 24l-26 60q-10 16 -10 30.5z" />
<glyph unicode="&#xca;" horiz-adv-x="985" d="M66 23q0 14 4 30l280 1321q4 18 11.5 23.5t25.5 5.5h684q23 0 29 -4t6 -19l-12 -30l-70 -136q-16 -27 -43 -26h-403l-74 -346h348q29 0 29 -23q0 -8 -4 -28l-29 -136q-4 -20 -10.5 -24t-26.5 -4h-352l-86 -412h440q35 0 35 -16q0 -6 -6 -37l-29 -133q-4 -18 -11 -23.5 t-26 -5.5h-680q-30 0 -30 23zM453 1640q0 12 18 25l283 188q23 16 33 16.5t24 -14.5l182 -192q23 -29 23 -33q0 -6 -15 -24l-53 -60q-20 -20 -26 -20q-8 0 -25 12l-145 107l-195 -107q-25 -12 -33 -12q-14 0 -24 20l-33 62q-14 24 -14 32z" />
<glyph unicode="&#xcb;" horiz-adv-x="985" d="M66 23q0 14 4 30l280 1321q4 18 11.5 23.5t25.5 5.5h684q23 0 29 -4t6 -19l-12 -30l-70 -136q-16 -27 -43 -26h-403l-74 -346h348q29 0 29 -23q0 -8 -4 -28l-29 -136q-4 -20 -10.5 -24t-26.5 -4h-352l-86 -412h440q35 0 35 -16q0 -6 -6 -37l-29 -133q-4 -18 -11 -23.5 t-26 -5.5h-680q-30 0 -30 23zM373 1687.5q0 59.5 42 101.5t101 42q57 0 99 -42t42 -101.5t-41 -100.5t-100 -41t-101 41t-42 100.5zM766 1687.5q0 59.5 42 101.5t101 42q57 0 99.5 -42t42.5 -101.5t-41 -100.5t-100.5 -41t-101.5 41t-42 100.5z" />
<glyph unicode="&#xcc;" horiz-adv-x="720" d="M-29 23q0 6 4 26l23 113q6 29 37 28h123l217 1022h-119q-27 0 -27 23q0 6 4 27l23 112q6 29 37 29h502q27 0 26 -23q0 -6 -4 -26l-22 -113q-4 -18 -11.5 -23.5t-25.5 -5.5h-123l-217 -1022h119q27 0 26 -22q0 -6 -4 -27l-22 -112q-4 -18 -11.5 -23.5t-25.5 -5.5h-502 q-27 0 -27 23zM236 1716q0 16 14 33l80 115q12 23 32 22q8 0 31 -16l281 -225q10 -10 10 -17q0 -4 -4 -10l-10 -15q-6 -9 -8 -14l-29 -41q-16 -23 -29 -22q-10 0 -35 12l-315 152q-18 8 -18 26z" />
<glyph unicode="&#xcd;" horiz-adv-x="720" d="M-29 23q0 6 4 26l23 113q6 29 37 28h123l217 1022h-119q-27 0 -27 23q0 6 4 27l23 112q6 29 37 29h502q27 0 26 -23q0 -6 -4 -26l-22 -113q-4 -18 -11.5 -23.5t-25.5 -5.5h-123l-217 -1022h119q27 0 26 -22q0 -6 -4 -27l-22 -112q-4 -18 -11.5 -23.5t-25.5 -5.5h-502 q-27 0 -27 23zM332 1640.5q0 14.5 22 24.5l365 197q18 12 33 12q12 0 24 -25l49 -118q10 -27 11 -31q0 -16 -27 -27l-385 -139q-25 -8 -33 -8q-12 0 -22 24l-27 60q-10 16 -10 30.5z" />
<glyph unicode="&#xce;" horiz-adv-x="720" d="M-29 23q0 6 4 26l23 113q6 29 37 28h123l217 1022h-119q-27 0 -27 23q0 6 4 27l23 112q6 29 37 29h502q27 0 26 -23q0 -6 -4 -26l-22 -113q-4 -18 -11.5 -23.5t-25.5 -5.5h-123l-217 -1022h119q27 0 26 -22q0 -6 -4 -27l-22 -112q-4 -18 -11.5 -23.5t-25.5 -5.5h-502 q-27 0 -27 23zM319 1640q0 12 19 25l283 188q23 16 33 16.5t24 -14.5l182 -192q23 -29 23 -33q0 -6 -15 -24l-53 -60q-20 -20 -27 -20q-8 0 -24 12l-146 107l-194 -107q-25 -12 -33 -12q-14 0 -24 20l-33 62q-15 24 -15 32z" />
<glyph unicode="&#xcf;" horiz-adv-x="720" d="M-29 23q0 6 4 26l23 113q6 29 37 28h123l217 1022h-119q-27 0 -27 23q0 6 4 27l23 112q6 29 37 29h502q27 0 26 -23q0 -6 -4 -26l-22 -113q-4 -18 -11.5 -23.5t-25.5 -5.5h-123l-217 -1022h119q27 0 26 -22q0 -6 -4 -27l-22 -112q-4 -18 -11.5 -23.5t-25.5 -5.5h-502 q-27 0 -27 23zM229 1687.5q0 59.5 42 101.5t102 42q57 0 99 -42t42 -101.5t-41 -100.5t-100.5 -41t-101.5 41t-42 100.5zM623 1687.5q0 59.5 42 101.5t101 42q57 0 99 -42t42 -101.5t-41 -100.5t-100 -41t-101 41t-42 100.5z" />
<glyph unicode="&#xd0;" horiz-adv-x="1214" d="M59 666q0 16 2 24l23 107q4 20 10 25t25 5h114l113 547q4 18 12.5 23.5t28.5 5.5h334q461 0 461 -434q0 -47 -4 -106.5t-21.5 -158t-45.5 -188.5t-81 -186.5t-122.5 -167t-178 -116.5t-240.5 -46h-393q-31 0 -30 23q0 14 4 30l125 590h-103q-33 0 -33 23zM367 215h139 q111 0 193.5 76t124.5 195.5t61.5 235.5t19.5 226q0 143 -63.5 191.5t-188.5 48.5h-82l-77 -361h198q35 0 35 -24q0 -4 -2 -13.5t-2 -13.5l-21 -104q-4 -18 -11 -23.5t-25 -5.5h-211z" />
<glyph unicode="&#xd1;" horiz-adv-x="1251" d="M61 23q0 14 5 30l280 1321q6 29 37 29h147q20 0 25.5 -4t11.5 -23l219 -678q27 -74 58 -221h4q4 96 35 234l141 663q4 18 11 23.5t26 5.5h172q31 0 31 -23q0 -14 -4 -30l-283 -1321q-4 -20 -9 -24.5t-24 -4.5h-133q-18 0 -25.5 4t-11.5 23l-235 741q-16 49 -45 180h-5 q-6 -51 -36 -207l-152 -712q-4 -18 -11 -23.5t-26 -5.5h-172q-31 0 -31 23zM504 1647q0 10 26.5 49t84 80t118.5 41q57 0 115.5 -37t77.5 -37q33 0 65.5 36t38.5 36t19 -9l65 -53q14 -14 14 -22q0 -14 -29.5 -54.5t-87 -79t-116.5 -38.5q-61 0 -110.5 36.5t-71.5 36.5 q-35 0 -69 -35.5t-40 -35.5q-8 0 -20 12l-70 57q-10 5 -10 17z" />
<glyph unicode="&#xd2;" horiz-adv-x="1175" d="M96 389q0 186 42 366.5t122 336t214 251t304 95.5q180 0 277.5 -109.5t97.5 -316.5q0 -186 -41 -366.5t-121 -335t-214 -250t-302 -95.5q-182 0 -280.5 108.5t-98.5 315.5zM373 395q0 -113 28.5 -164t102.5 -51q115 0 203 139.5t129 323.5t41 363q0 115 -29 166t-100 51 q-115 0 -204 -140.5t-130 -325t-41 -362.5zM463 1716q0 16 14 33l80 115q12 23 33 22q8 0 31 -16l280 -225q10 -10 10 -17q0 -4 -4 -10l-10 -15q-6 -9 -8 -14l-29 -41q-16 -23 -29 -22q-10 0 -34 12l-316 152q-18 8 -18 26z" />
<glyph unicode="&#xd3;" horiz-adv-x="1175" d="M96 389q0 186 42 366.5t122 336t214 251t304 95.5q180 0 277.5 -109.5t97.5 -316.5q0 -186 -41 -366.5t-121 -335t-214 -250t-302 -95.5q-182 0 -280.5 108.5t-98.5 315.5zM373 395q0 -113 28.5 -164t102.5 -51q115 0 203 139.5t129 323.5t41 363q0 115 -29 166t-100 51 q-115 0 -204 -140.5t-130 -325t-41 -362.5zM559 1640.5q0 14.5 23 24.5l364 197q18 12 33 12q12 0 25 -25l49 -118q10 -27 10 -31q0 -16 -27 -27l-385 -139q-25 -8 -33 -8q-12 0 -22 24l-27 60q-10 16 -10 30.5z" />
<glyph unicode="&#xd4;" horiz-adv-x="1175" d="M96 389q0 186 42 366.5t122 336t214 251t304 95.5q180 0 277.5 -109.5t97.5 -316.5q0 -186 -41 -366.5t-121 -335t-214 -250t-302 -95.5q-182 0 -280.5 108.5t-98.5 315.5zM373 395q0 -113 28.5 -164t102.5 -51q115 0 203 139.5t129 323.5t41 363q0 115 -29 166t-100 51 q-115 0 -204 -140.5t-130 -325t-41 -362.5zM526 1640q0 12 19 25l282 188q23 16 33 16.5t25 -14.5l182 -192q23 -29 23 -33q0 -6 -15 -24l-53 -60q-20 -20 -27 -20q-8 0 -24 12l-146 107l-194 -107q-25 -12 -33 -12q-14 0 -25 20l-32 62q-15 24 -15 32z" />
<glyph unicode="&#xd5;" horiz-adv-x="1175" d="M96 389q0 186 42 366.5t122 336t214 251t304 95.5q180 0 277.5 -109.5t97.5 -316.5q0 -186 -41 -366.5t-121 -335t-214 -250t-302 -95.5q-182 0 -280.5 108.5t-98.5 315.5zM373 395q0 -113 28.5 -164t102.5 -51q115 0 203 139.5t129 323.5t41 363q0 115 -29 166t-100 51 q-115 0 -204 -140.5t-130 -325t-41 -362.5zM465 1647q0 10 26.5 49t84 80t118.5 41q57 0 115.5 -37t77.5 -37q33 0 65.5 36t38.5 36t19 -9l65 -53q14 -14 15 -22q0 -14 -30 -54.5t-87.5 -79t-116.5 -38.5q-61 0 -110.5 36.5t-71.5 36.5q-35 0 -69 -35.5t-40 -35.5 q-8 0 -20 12l-70 57q-10 5 -10 17z" />
<glyph unicode="&#xd6;" horiz-adv-x="1175" d="M96 389q0 186 42 366.5t122 336t214 251t304 95.5q180 0 277.5 -109.5t97.5 -316.5q0 -186 -41 -366.5t-121 -335t-214 -250t-302 -95.5q-182 0 -280.5 108.5t-98.5 315.5zM373 395q0 -113 28.5 -164t102.5 -51q115 0 203 139.5t129 323.5t41 363q0 115 -29 166t-100 51 q-115 0 -204 -140.5t-130 -325t-41 -362.5zM467 1687.5q0 59.5 42 101.5t101 42q57 0 99.5 -42t42.5 -101.5t-41 -100.5t-100.5 -41t-101.5 41t-42 100.5zM860 1687.5q0 59.5 42 101.5t102 42q57 0 99 -42t42 -101.5t-41 -100.5t-100.5 -41t-101.5 41t-42 100.5z" />
<glyph unicode="&#xd7;" d="M176 268q0 10 14 25l236 231l-236 232q-14 10 -14 24q0 10 14 25l99 98q14 14 22 15q12 0 27 -15l231 -235l232 235q14 14 24.5 14.5t24.5 -14.5l96 -96q16 -16 17 -25q0 -14 -17 -26l-233 -232l233 -231q16 -16 17 -23q0 -10 -17 -26l-96 -97q-16 -16 -25 -16 q-12 0 -24 16l-232 236l-231 -236q-12 -16 -25 -16q-8 0 -24 16l-99 97q-14 10 -14 24z" />
<glyph unicode="&#xd8;" horiz-adv-x="1175" d="M74 -35q0 12 8 25l80 125q0 2 -8.5 15l-12.5 19.5t-12 22.5t-12 29.5l-10.5 37t-10.5 45t-6 51.5t-2 62q0 180 42 359.5t123 334t215 251t302 96.5q117 0 203 -43l67 108q10 16 25 17q4 0 12 -4l10 -5l70 -43q20 -16 21 -22q0 -8 -11 -25l-82 -129q25 -37 34 -53 t25.5 -82.5t16.5 -148.5q0 -178 -41 -355.5t-119.5 -334t-215 -255t-308.5 -98.5q-121 0 -203 47l-63 -104q-12 -18 -25 -19q-8 0 -24 9l-68 43q-20 14 -20 24zM334 358h4l528 842q-37 43 -112 43q-111 0 -198 -107.5t-132 -261t-67.5 -290t-22.5 -226.5zM383 205 q41 -45 115 -45q94 0 170.5 73.5t122 180t75 236.5t39.5 228.5t10 168.5h-4z" />
<glyph unicode="&#xd9;" horiz-adv-x="1251" d="M123 301q0 78 20 174l189 899q4 18 11 23.5t26 5.5h198q31 0 31 -23q0 -14 -4 -30l-193 -877q-18 -63 -18 -133q0 -154 182 -154q121 0 178.5 77t85.5 208l189 903q4 18 11 23.5t26 5.5h192q31 0 31 -23q0 -14 -4 -30l-184 -875q-18 -88 -35 -144.5t-58 -133t-95 -121.5 t-148.5 -78t-216.5 -33q-197 0 -305.5 84t-108.5 252zM502 1716q0 16 14 33l80 115q12 23 33 22q8 0 30 -16l281 -225q10 -10 10 -17q0 -4 -4 -10l-10 -15q-6 -9 -8 -14l-29 -41q-16 -23 -29 -22q-10 0 -34 12l-316 152q-18 8 -18 26z" />
<glyph unicode="&#xda;" horiz-adv-x="1251" d="M123 301q0 78 20 174l189 899q4 18 11 23.5t26 5.5h198q31 0 31 -23q0 -14 -4 -30l-193 -877q-18 -63 -18 -133q0 -154 182 -154q121 0 178.5 77t85.5 208l189 903q4 18 11 23.5t26 5.5h192q31 0 31 -23q0 -14 -4 -30l-184 -875q-18 -88 -35 -144.5t-58 -133t-95 -121.5 t-148.5 -78t-216.5 -33q-197 0 -305.5 84t-108.5 252zM598 1640.5q0 14.5 23 24.5l364 197q18 12 33 12q12 0 24 -25l50 -118q10 -27 10 -31q0 -16 -27 -27l-385 -139q-25 -8 -33 -8q-12 0 -22 24l-27 60q-10 16 -10 30.5z" />
<glyph unicode="&#xdb;" horiz-adv-x="1251" d="M123 301q0 78 20 174l189 899q4 18 11 23.5t26 5.5h198q31 0 31 -23q0 -14 -4 -30l-193 -877q-18 -63 -18 -133q0 -154 182 -154q121 0 178.5 77t85.5 208l189 903q4 18 11 23.5t26 5.5h192q31 0 31 -23q0 -14 -4 -30l-184 -875q-18 -88 -35 -144.5t-58 -133t-95 -121.5 t-148.5 -78t-216.5 -33q-197 0 -305.5 84t-108.5 252zM565 1640q0 12 19 25l282 188q23 16 33 16.5t25 -14.5l182 -192q23 -29 22 -33q0 -6 -14 -24l-53 -60q-20 -20 -27 -20q-8 0 -24 12l-146 107l-194 -107q-25 -12 -33 -12q-14 0 -25 20l-32 62q-15 24 -15 32z" />
<glyph unicode="&#xdc;" horiz-adv-x="1251" d="M123 301q0 78 20 174l189 899q4 18 11 23.5t26 5.5h198q31 0 31 -23q0 -14 -4 -30l-193 -877q-18 -63 -18 -133q0 -154 182 -154q121 0 178.5 77t85.5 208l189 903q4 18 11 23.5t26 5.5h192q31 0 31 -23q0 -14 -4 -30l-184 -875q-18 -88 -35 -144.5t-58 -133t-95 -121.5 t-148.5 -78t-216.5 -33q-197 0 -305.5 84t-108.5 252zM506 1687.5q0 59.5 42 101.5t101 42q57 0 99.5 -42t42.5 -101.5t-41 -100.5t-100.5 -41t-101.5 41t-42 100.5zM899 1687.5q0 59.5 42 101.5t101 42q57 0 99.5 -42t42.5 -101.5t-41 -100.5t-100.5 -41t-101.5 41 t-42 100.5z" />
<glyph unicode="&#xdd;" horiz-adv-x="1062" d="M186 1348q0 12 33 22l189 49q6 2 22 2t27 -37l80 -299q35 -125 45 -268h4q80 150 162 270l210 312q16 23 26.5 22.5t31.5 -4.5l182 -51q29 -8 29 -23q0 -18 -8 -26l-541 -742l-113 -546q-4 -18 -11 -23.5t-26 -5.5h-198q-31 0 -31 23q0 14 4 30l113 522l-228 750 q-2 5 -2 23zM504 1640.5q0 14.5 22 24.5l365 197q18 12 33 12q12 0 24 -25l49 -118q10 -27 11 -31q0 -16 -27 -27l-385 -139q-25 -8 -33 -8q-12 0 -22 24l-27 60q-10 16 -10 30.5z" />
<glyph unicode="&#xde;" horiz-adv-x="1062" d="M66 23q0 14 4 30l280 1321q4 18 11.5 23.5t25.5 5.5h199q31 0 30 -23q0 -14 -4 -30l-32 -152h67q88 0 153.5 -11t128 -43t96.5 -97.5t34 -163.5q0 -260 -158 -393.5t-393 -133.5h-109l-67 -327q-4 -18 -11.5 -23.5t-25.5 -5.5h-199q-30 0 -30 23zM446 578h64 q133 0 208 63.5t75 194.5q0 82 -47.5 111.5t-127.5 29.5h-86z" />
<glyph unicode="&#xdf;" horiz-adv-x="1214" d="M-297 -379q0 4 3 12.5t3 10.5l41 145q6 14 17 14q2 0 12 -3t27.5 -6t35.5 -3q43 0 74 14.5t47.5 27.5t31.5 57t19 63l19 84l211 983q20 96 47.5 166.5t82 144.5t149.5 113t229 39q164 0 259 -68.5t95 -206.5q0 -145 -133 -262q-12 -10 -39 -30.5t-39 -31t-28.5 -27.5 t-22.5 -33.5t-6 -35.5q0 -16 7 -32.5t22.5 -33.5t29.5 -30l40 -35l40 -34q139 -131 139 -291q0 -170 -118.5 -268.5t-309.5 -98.5q-88 0 -175 20.5t-87 45.5q0 16 8 32l39 123q4 16 23 17q2 0 74.5 -26.5t142.5 -26.5q84 0 131 38.5t47 102.5q0 41 -25.5 82t-48 63.5 t-76.5 65.5q-47 41 -73.5 68.5t-51 74.5t-24.5 96q0 80 36 132.5t103 107.5q4 4 25 21l26 23q6 5 22.5 20.5t22.5 23.5l18 23q11 14 14 26l7 28q4 15 4 32q0 45 -36.5 72.5t-100 27.5t-108.5 -19.5t-71 -58.5t-39 -74.5t-23 -91.5l-224 -1042q-14 -66 -25.5 -107t-41 -104.5 t-67.5 -100t-105.5 -65.5t-155.5 -29q-170 0 -170 35z" />
<glyph unicode="&#xe0;" horiz-adv-x="1062" d="M70 303q0 303 144 523.5t341 220.5q61 0 113.5 -25t68 -39t45.5 -47l23 55q8 20 29 21h161q23 0 23 -21q0 -8 -4 -24l-135 -641q-16 -72 -17 -146q2 -27 9.5 -69.5t7.5 -53.5q0 -12 -25 -22l-164 -64q-18 -6 -24 -6q-16 0 -27.5 53.5t-11.5 131.5q-94 -106 -172 -146 q-76 -39 -158 -39q-111 0 -169 88t-58 250zM315 293q0 -123 86 -123q104 0 168 85t90 200l72 333q-4 2 -16.5 13.5t-20.5 17.5t-22.5 15.5t-26.5 14.5t-29.5 9t-35.5 4q-82 0 -144.5 -100t-91.5 -227t-29 -242zM367 1325q0 16 14 33l80 115q12 23 33 22q8 0 30 -16l281 -226 q10 -10 10 -16q0 -4 -4 -10l-10 -16q-6 -9 -8 -13l-29 -41q-16 -23 -29 -22q-10 0 -35 12l-315 151q-18 9 -18 27z" />
<glyph unicode="&#xe1;" horiz-adv-x="1062" d="M70 303q0 303 144 523.5t341 220.5q61 0 113.5 -25t68 -39t45.5 -47l23 55q8 20 29 21h161q23 0 23 -21q0 -8 -4 -24l-135 -641q-16 -72 -17 -146q2 -27 9.5 -69.5t7.5 -53.5q0 -12 -25 -22l-164 -64q-18 -6 -24 -6q-16 0 -27.5 53.5t-11.5 131.5q-94 -106 -172 -146 q-76 -39 -158 -39q-111 0 -169 88t-58 250zM315 293q0 -123 86 -123q104 0 168 85t90 200l72 333q-4 2 -16.5 13.5t-20.5 17.5t-22.5 15.5t-26.5 14.5t-29.5 9t-35.5 4q-82 0 -144.5 -100t-91.5 -227t-29 -242zM483 1249q0 12 23 25l364 196q18 12 33 13q12 0 25 -25 l49 -119q10 -25 10 -30q0 -16 -26 -27l-386 -139q-25 -8 -32 -8q-12 0 -23 24l-26 60q-11 16 -11 30z" />
<glyph unicode="&#xe2;" horiz-adv-x="1062" d="M70 303q0 303 144 523.5t341 220.5q61 0 113.5 -25t68 -39t45.5 -47l23 55q8 20 29 21h161q23 0 23 -21q0 -8 -4 -24l-135 -641q-16 -72 -17 -146q2 -27 9.5 -69.5t7.5 -53.5q0 -12 -25 -22l-164 -64q-18 -6 -24 -6q-16 0 -27.5 53.5t-11.5 131.5q-94 -106 -172 -146 q-76 -39 -158 -39q-111 0 -169 88t-58 250zM315 293q0 -123 86 -123q104 0 168 85t90 200l72 333q-4 2 -16.5 13.5t-20.5 17.5t-22.5 15.5t-26.5 14.5t-29.5 9t-35.5 4q-82 0 -144.5 -100t-91.5 -227t-29 -242zM389 1249q0 12 19 25l282 188q23 16 33 16.5t25 -14.5 l182 -192q23 -29 22 -33q0 -6 -14 -25l-53 -59q-20 -20 -27 -20q-8 0 -24 12l-146 106l-194 -106q-25 -12 -33 -12q-14 0 -25 20l-33 62q-14 24 -14 32z" />
<glyph unicode="&#xe3;" horiz-adv-x="1062" d="M70 303q0 303 144 523.5t341 220.5q61 0 113.5 -25t68 -39t45.5 -47l23 55q8 20 29 21h161q23 0 23 -21q0 -8 -4 -24l-135 -641q-16 -72 -17 -146q2 -27 9.5 -69.5t7.5 -53.5q0 -12 -25 -22l-164 -64q-18 -6 -24 -6q-16 0 -27.5 53.5t-11.5 131.5q-94 -106 -172 -146 q-76 -39 -158 -39q-111 0 -169 88t-58 250zM315 293q0 -123 86 -123q104 0 168 85t90 200l72 333q-4 2 -16.5 13.5t-20.5 17.5t-22.5 15.5t-26.5 14.5t-29.5 9t-35.5 4q-82 0 -144.5 -100t-91.5 -227t-29 -242zM369 1255.5q0 10.5 26.5 49t84 79.5t118.5 41 q57 0 115.5 -36.5t77.5 -36.5q33 0 65.5 35.5t38.5 35.5t18 -8l66 -53q14 -14 14 -23q0 -14 -29.5 -54t-87 -79t-116.5 -39q-61 0 -110.5 37t-71.5 37q-35 0 -69 -36t-40 -36q-8 0 -20 13l-70 57q-10 6 -10 16.5z" />
<glyph unicode="&#xe4;" horiz-adv-x="1062" d="M70 303q0 303 144 523.5t341 220.5q61 0 113.5 -25t68 -39t45.5 -47l23 55q8 20 29 21h161q23 0 23 -21q0 -8 -4 -24l-135 -641q-16 -72 -17 -146q2 -27 9.5 -69.5t7.5 -53.5q0 -12 -25 -22l-164 -64q-18 -6 -24 -6q-16 0 -27.5 53.5t-11.5 131.5q-94 -106 -172 -146 q-76 -39 -158 -39q-111 0 -169 88t-58 250zM315 293q0 -123 86 -123q104 0 168 85t90 200l72 333q-4 2 -16.5 13.5t-20.5 17.5t-22.5 15.5t-26.5 14.5t-29.5 9t-35.5 4q-82 0 -144.5 -100t-91.5 -227t-29 -242zM381 1296.5q0 59.5 42 101.5t101 42q57 0 99.5 -42 t42.5 -101.5t-41 -100.5t-100.5 -41t-101.5 41t-42 100.5zM774 1296.5q0 59.5 42 101.5t102 42q57 0 99 -42t42 -101.5t-41 -100.5t-100.5 -41t-101.5 41t-42 100.5z" />
<glyph unicode="&#xe5;" horiz-adv-x="1062" d="M70 303q0 303 144 523.5t341 220.5q61 0 113.5 -25t68 -39t45.5 -47l23 55q8 20 29 21h161q23 0 23 -21q0 -8 -4 -24l-135 -641q-16 -72 -17 -146q2 -27 9.5 -69.5t7.5 -53.5q0 -12 -25 -22l-164 -64q-18 -6 -24 -6q-16 0 -27.5 53.5t-11.5 131.5q-94 -106 -172 -146 q-76 -39 -158 -39q-111 0 -169 88t-58 250zM315 293q0 -123 86 -123q104 0 168 85t90 200l72 333q-4 2 -16.5 13.5t-20.5 17.5t-22.5 15.5t-26.5 14.5t-29.5 9t-35.5 4q-82 0 -144.5 -100t-91.5 -227t-29 -242zM492 1323q0 90 62 152.5t151 62.5q90 0 152.5 -62.5 t62.5 -152.5q0 -88 -62.5 -150.5t-152.5 -62.5q-88 0 -150.5 62.5t-62.5 150.5zM621 1323q0 -35 25.5 -59.5t58.5 -24.5q35 0 60.5 24.5t25.5 59.5t-25 60.5t-61 25.5q-35 0 -59.5 -24.5t-24.5 -61.5z" />
<glyph unicode="&#xe6;" horiz-adv-x="1478" d="M23 236q0 74 26.5 133t66.5 97t99 66.5t110.5 42t116 21.5t100.5 9t79 1l22 96q8 41 8 64q0 96 -125 96q-55 0 -113.5 -17.5t-97.5 -35.5t-47 -18q-16 0 -22 20l-33 104q0 2 -1 6.5t-2 7.5l-2 6q-1 3 -1 5q0 31 126 69t220 38q86 0 142.5 -26t73.5 -49.5t44 -72.5 q147 147 352 148q143 0 223 -73t80 -198q0 -74 -26.5 -131t-65.5 -94t-100.5 -62.5t-110.5 -39t-120.5 -19.5t-106.5 -7t-90 -1q-10 -49 -10 -98q0 -154 170 -154q72 0 164 41t96 41q10 0 16 -14l51 -127l6 -19q0 -14 -54 -44t-151.5 -56.5t-193.5 -26.5t-180 42t-125 126 q-143 -168 -344 -168q-125 0 -197.5 74t-72.5 197zM268 254q0 -47 24.5 -75.5t69.5 -28.5q74 0 129.5 46t73.5 140l17 86q-2 0 -26 1t-39 0t-44 -2t-48 -6l-46 -13q-27 -7 -44.5 -20t-33.5 -29.5t-24.5 -42t-8.5 -56.5zM881 606q342 0 342 156q0 43 -24.5 71.5t-70.5 28.5 q-63 0 -111 -28.5t-76 -76.5t-40 -82t-20 -69z" />
<glyph unicode="&#xe7;" horiz-adv-x="833" d="M49 365q0 307 164 494.5t405 187.5q74 0 140.5 -19.5t100.5 -40t34 -33.5q0 -6 -12 -24l-78 -127q-8 -12 -19 -12q-4 0 -23.5 12t-59 25.5t-97.5 13.5q-133 0 -214 -146.5t-81 -351.5q0 -164 152 -164q57 0 113.5 23.5t60.5 23.5q12 0 16 -10l51 -137l7 -21 q0 -29 -84 -61.5t-158 -32.5l-25 -80q123 -16 123 -129q0 -94 -62.5 -150.5t-174.5 -56.5q-63 0 -110.5 11.5t-47.5 27.5q0 6 4 23l25 78q4 14 12 14q2 0 32.5 -10t55.5 -10q33 0 52.5 16t19.5 41q0 45 -76 45q-37 0 -37 14q0 6 4 23l47 160q-113 27 -186.5 125t-73.5 258z " />
<glyph unicode="&#xe8;" horiz-adv-x="948" d="M53 346q0 303 169 502t411 199q143 0 223 -73t80 -198q0 -80 -31 -143.5t-74 -103.5t-110.5 -68.5t-120.5 -41.5t-125 -20.5t-103.5 -8.5t-72.5 -1v-20v-27q0 -6 2 -26.5t5 -29.5l9 -29q6 -19 14.5 -28.5t23 -22.5t30.5 -19.5t39.5 -11.5t52.5 -5q72 0 164 41t96 41 q10 0 17 -14l51 -127l6 -19q0 -14 -54.5 -44t-151.5 -56.5t-193 -26.5q-178 0 -267.5 101.5t-89.5 279.5zM309 1325q0 16 15 33l79 115q12 23 33 22q8 0 31 -16l281 -226q10 -10 10 -16q0 -4 -4 -10l-11 -16q-6 -9 -8 -13l-28 -41q-16 -23 -29 -22q-10 0 -35 12l-315 151 q-19 9 -19 27zM328 573q362 0 362 189q0 43 -24.5 71.5t-69.5 28.5q-198 0 -268 -289z" />
<glyph unicode="&#xe9;" horiz-adv-x="948" d="M53 346q0 303 169 502t411 199q143 0 223 -73t80 -198q0 -80 -31 -143.5t-74 -103.5t-110.5 -68.5t-120.5 -41.5t-125 -20.5t-103.5 -8.5t-72.5 -1v-20v-27q0 -6 2 -26.5t5 -29.5l9 -29q6 -19 14.5 -28.5t23 -22.5t30.5 -19.5t39.5 -11.5t52.5 -5q72 0 164 41t96 41 q10 0 17 -14l51 -127l6 -19q0 -14 -54.5 -44t-151.5 -56.5t-193 -26.5q-178 0 -267.5 101.5t-89.5 279.5zM328 573q362 0 362 189q0 43 -24.5 71.5t-69.5 28.5q-198 0 -268 -289zM426 1249q0 12 23 25l364 196q18 12 33 13q12 0 24 -25l50 -119q10 -25 10 -30q0 -16 -27 -27 l-385 -139q-25 -8 -33 -8q-12 0 -22 24l-27 60q-10 16 -10 30z" />
<glyph unicode="&#xea;" horiz-adv-x="948" d="M53 346q0 303 169 502t411 199q143 0 223 -73t80 -198q0 -80 -31 -143.5t-74 -103.5t-110.5 -68.5t-120.5 -41.5t-125 -20.5t-103.5 -8.5t-72.5 -1v-20v-27q0 -6 2 -26.5t5 -29.5l9 -29q6 -19 14.5 -28.5t23 -22.5t30.5 -19.5t39.5 -11.5t52.5 -5q72 0 164 41t96 41 q10 0 17 -14l51 -127l6 -19q0 -14 -54.5 -44t-151.5 -56.5t-193 -26.5q-178 0 -267.5 101.5t-89.5 279.5zM328 573q362 0 362 189q0 43 -24.5 71.5t-69.5 28.5q-198 0 -268 -289zM332 1249q0 12 18 25l283 188q23 16 33 16.5t24 -14.5l182 -192q23 -29 23 -33q0 -6 -14 -25 l-54 -59q-20 -20 -26 -20q-8 0 -25 12l-145 106l-195 -106q-25 -12 -33 -12q-14 0 -24 20l-33 62q-14 24 -14 32z" />
<glyph unicode="&#xeb;" horiz-adv-x="948" d="M53 346q0 303 169 502t411 199q143 0 223 -73t80 -198q0 -80 -31 -143.5t-74 -103.5t-110.5 -68.5t-120.5 -41.5t-125 -20.5t-103.5 -8.5t-72.5 -1v-20v-27q0 -6 2 -26.5t5 -29.5l9 -29q6 -19 14.5 -28.5t23 -22.5t30.5 -19.5t39.5 -11.5t52.5 -5q72 0 164 41t96 41 q10 0 17 -14l51 -127l6 -19q0 -14 -54.5 -44t-151.5 -56.5t-193 -26.5q-178 0 -267.5 101.5t-89.5 279.5zM324 1296.5q0 59.5 42 101.5t101 42q57 0 99 -42t42 -101.5t-41 -100.5t-100 -41t-101 41t-42 100.5zM328 573q362 0 362 189q0 43 -24.5 71.5t-69.5 28.5 q-198 0 -268 -289zM717 1296.5q0 59.5 42 101.5t101 42q57 0 99 -42t42 -101.5t-40.5 -100.5t-100 -41t-101.5 41t-42 100.5z" />
<glyph unicode="&#xec;" horiz-adv-x="606" d="M84 848q0 8 4 24l23 115q4 25 30 25h381q25 0 25 -19q0 -20 -2 -26l-201 -942q-2 -16 -7 -20.5t-22 -4.5h-190q-27 0 -27 20q0 14 2 23l166 784h-155q-27 1 -27 21zM117 1325q0 16 14 33l80 115q12 23 33 22q8 0 30 -16l281 -226q10 -10 10 -16q0 -4 -4 -10l-10 -16 q-6 -9 -8 -13l-29 -41q-16 -23 -29 -22q-10 0 -34 12l-316 151q-18 9 -18 27z" />
<glyph unicode="&#xed;" horiz-adv-x="606" d="M84 848q0 8 4 24l23 115q4 25 30 25h381q25 0 25 -19q0 -20 -2 -26l-201 -942q-2 -16 -7 -20.5t-22 -4.5h-190q-27 0 -27 20q0 14 2 23l166 784h-155q-27 1 -27 21zM254 1249q0 12 22 25l365 196q18 12 33 13q12 0 24 -25l50 -119q10 -25 10 -30q0 -16 -27 -27l-385 -139 q-25 -8 -33 -8q-12 0 -22 24l-27 60q-10 16 -10 30z" />
<glyph unicode="&#xee;" horiz-adv-x="606" d="M84 848q0 8 4 24l23 115q4 25 30 25h381q25 0 25 -19q0 -20 -2 -26l-201 -942q-2 -16 -7 -20.5t-22 -4.5h-190q-27 0 -27 20q0 14 2 23l166 784h-155q-27 1 -27 21zM160 1249q0 12 18 25l283 188q23 16 33 16.5t24 -14.5l182 -192q23 -29 23 -33q0 -6 -14 -25l-54 -59 q-20 -20 -26 -20q-8 0 -25 12l-145 106l-195 -106q-25 -12 -33 -12q-14 0 -24 20l-33 62q-14 24 -14 32z" />
<glyph unicode="&#xef;" horiz-adv-x="606" d="M84 848q0 8 4 24l23 115q4 25 30 25h381q25 0 25 -19q0 -20 -2 -26l-201 -942q-2 -16 -7 -20.5t-22 -4.5h-190q-27 0 -27 20q0 14 2 23l166 784h-155q-27 1 -27 21zM90 1296.5q0 59.5 42 101.5t101 42q57 0 99.5 -42t42.5 -101.5t-41 -100.5t-100.5 -41t-101.5 41 t-42 100.5zM483 1296.5q0 59.5 42 101.5t102 42q57 0 99 -42t42 -101.5t-41 -100.5t-100.5 -41t-101.5 41t-42 100.5z" />
<glyph unicode="&#xf0;" horiz-adv-x="1024" d="M51 336q0 270 153.5 473t346.5 203q66 0 143 -37q-29 145 -47 213l-192 -58q-18 -6 -21 -6q-14 0 -18 19l-19 61q-4 8 -4 23q0 12 17 18l196 60q-25 59 -49.5 104t-34.5 61.5t-10 24.5q0 14 41 14h117q27 0 49 -16t31.5 -29.5t27 -52.5t21.5 -47l190 53q12 4 23 4 q12 0 16 -16l16 -59l7 -21q0 -14 -19 -18l-192 -58q125 -319 125 -571q0 -305 -163 -509t-407 -204q-344 0 -344 371zM311 322q0 -152 121 -152q90 0 155.5 91t91.5 205t26 224q0 147 -123 148q-86 0 -150.5 -87t-92.5 -200.5t-28 -228.5z" />
<glyph unicode="&#xf1;" horiz-adv-x="1062" d="M37 20q0 2 1 10.5t1 12.5l139 616q25 102 25 168q0 33 -9.5 72t-9.5 55q0 12 25 23l164 63q18 6 20 7q16 0 28.5 -60.5t12.5 -146.5q45 53 78 87t109.5 77t152.5 43q96 0 151.5 -62.5t55.5 -153.5q0 -74 -20 -159l-150 -647q-2 -16 -7 -20.5t-22 -4.5h-190q-27 0 -27 20 q0 2 1 10.5t1 12.5l135 584q18 74 19 125q0 80 -62 79q-66 0 -118 -38.5t-85.5 -109.5t-51 -126t-33.5 -127l-88 -405q-2 -16 -7.5 -20.5t-21.5 -4.5h-191q-26 0 -26 20zM369 1255.5q0 10.5 26.5 49t84 79.5t118.5 41q57 0 115.5 -36.5t77.5 -36.5q33 0 65.5 35.5t38.5 35.5 t18 -8l66 -53q14 -14 14 -23q0 -14 -29.5 -54t-87 -79t-116.5 -39q-61 0 -110.5 37t-71.5 37q-35 0 -69 -36t-40 -36q-8 0 -20 13l-70 57q-10 6 -10 16.5z" />
<glyph unicode="&#xf2;" horiz-adv-x="1024" d="M45 338q0 291 166 500t416 209q336 0 336 -373q0 -291 -163 -500t-407 -209q-348 0 -348 373zM305 319q0 -150 125 -149q68 0 122 53t86 134t48 168t16 167q0 150 -124 150q-68 0 -122.5 -53.5t-86 -134.5t-48 -168t-16.5 -167zM346 1325q0 16 14 33l80 115q12 23 33 22 q8 0 31 -16l280 -226q10 -10 11 -16q0 -4 -4 -10l-11 -16q-6 -9 -8 -13l-29 -41q-16 -23 -28 -22q-10 0 -35 12l-315 151q-19 9 -19 27z" />
<glyph unicode="&#xf3;" horiz-adv-x="1024" d="M45 338q0 291 166 500t416 209q336 0 336 -373q0 -291 -163 -500t-407 -209q-348 0 -348 373zM305 319q0 -150 125 -149q68 0 122 53t86 134t48 168t16 167q0 150 -124 150q-68 0 -122.5 -53.5t-86 -134.5t-48 -168t-16.5 -167zM463 1249q0 12 22 25l365 196q18 12 33 13 q12 0 24 -25l49 -119q10 -25 11 -30q0 -16 -27 -27l-385 -139q-25 -8 -33 -8q-12 0 -22 24l-27 60q-10 16 -10 30z" />
<glyph unicode="&#xf4;" horiz-adv-x="1024" d="M45 338q0 291 166 500t416 209q336 0 336 -373q0 -291 -163 -500t-407 -209q-348 0 -348 373zM305 319q0 -150 125 -149q68 0 122 53t86 134t48 168t16 167q0 150 -124 150q-68 0 -122.5 -53.5t-86 -134.5t-48 -168t-16.5 -167zM369 1249q0 12 18 25l283 188 q23 16 33 16.5t24 -14.5l182 -192q23 -29 23 -33q0 -6 -14 -25l-54 -59q-20 -20 -26 -20q-8 0 -25 12l-145 106l-195 -106q-25 -12 -33 -12q-14 0 -24 20l-33 62q-14 24 -14 32z" />
<glyph unicode="&#xf5;" horiz-adv-x="1024" d="M45 338q0 291 166 500t416 209q336 0 336 -373q0 -291 -163 -500t-407 -209q-348 0 -348 373zM305 319q0 -150 125 -149q68 0 122 53t86 134t48 168t16 167q0 150 -124 150q-68 0 -122.5 -53.5t-86 -134.5t-48 -168t-16.5 -167zM348 1255.5q0 10.5 26.5 49t84 79.5 t119.5 41q57 0 115.5 -36.5t76.5 -36.5q33 0 65.5 35.5t39 35.5t18.5 -8l65 -53q14 -14 15 -23q0 -14 -30 -54t-87 -79t-117 -39q-61 0 -110 37t-72 37q-35 0 -68.5 -36t-39.5 -36q-8 0 -21 13l-70 57q-10 6 -10 16.5z" />
<glyph unicode="&#xf6;" horiz-adv-x="1024" d="M45 338q0 291 166 500t416 209q336 0 336 -373q0 -291 -163 -500t-407 -209q-348 0 -348 373zM305 319q0 -150 125 -149q68 0 122 53t86 134t48 168t16 167q0 150 -124 150q-68 0 -122.5 -53.5t-86 -134.5t-48 -168t-16.5 -167zM340 1296.5q0 59.5 42 101.5t101 42 q57 0 99.5 -42t42.5 -101.5t-41 -100.5t-100.5 -41t-101.5 41t-42 100.5zM733 1296.5q0 59.5 42 101.5t102 42q57 0 99 -42t42 -101.5t-41 -100.5t-100.5 -41t-101.5 41t-42 100.5z" />
<glyph unicode="&#xf7;" d="M104 459v135q0 20 7.5 27.5t27.5 7.5h860q20 0 27.5 -7.5t7.5 -27.5v-135q0 -20 -7 -27.5t-28 -7.5h-860q-20 0 -27.5 7.5t-7.5 27.5zM424 174.5q0 61.5 42 103t103 41.5q59 0 102.5 -41.5t43.5 -103t-43 -103.5t-102.5 -42t-102.5 42t-43 103.5zM424 878.5 q0 61.5 42 103.5t103 42q59 0 102.5 -43t43.5 -102q0 -61 -42 -103.5t-104 -42.5q-59 0 -102 42t-43 103.5z" />
<glyph unicode="&#xf8;" horiz-adv-x="1024" d="M8 -27q0 10 10 21l84 104q-51 94 -51 240q0 293 165 501t402 208q104 0 193 -50l84 105q10 14 20 14q6 0 19 -8l53 -43q14 -14 14 -20.5t-8 -18.5l-90 -113q55 -98 55 -237q0 -295 -162.5 -503t-400.5 -208q-129 0 -202 49l-76 -98q-14 -14 -21 -14q-10 0 -22 12l-51 41 q-15 10 -15 18zM287 309h4l393 516q-47 37 -84 37q-80 0 -155.5 -100t-116.5 -228.5t-41 -224.5zM324 190q45 -41 100 -40q78 0 137.5 53t89 122.5t47 158.5t21.5 140.5t4 86.5h-4z" />
<glyph unicode="&#xf9;" horiz-adv-x="1062" d="M68 180q0 66 22 160l150 641q2 12 6 16t22 9l168 34l31 7q29 0 29 -21q0 -14 -4 -31l-146 -610q-18 -92 -18 -125q0 -80 61 -80q207 0 291 402l88 399q2 12 6 16t23 9l168 34l30 7q29 0 29 -21q0 -8 -4 -25l-150 -649q-25 -123 -24 -168q0 -33 9 -71.5t9 -55.5 q0 -12 -24 -22l-164 -64q-18 -6 -21 -6q-16 0 -28.5 60.5t-12.5 146.5q-45 -53 -77.5 -87t-109.5 -77t-153 -43q-96 0 -151 62.5t-55 152.5zM367 1325q0 16 14 33l80 115q12 23 33 22q8 0 30 -16l281 -226q10 -10 10 -16q0 -4 -4 -10l-10 -16q-6 -9 -8 -13l-29 -41 q-16 -23 -29 -22q-10 0 -35 12l-315 151q-18 9 -18 27z" />
<glyph unicode="&#xfa;" horiz-adv-x="1062" d="M68 180q0 66 22 160l150 641q2 12 6 16t22 9l168 34l31 7q29 0 29 -21q0 -14 -4 -31l-146 -610q-18 -92 -18 -125q0 -80 61 -80q207 0 291 402l88 399q2 12 6 16t23 9l168 34l30 7q29 0 29 -21q0 -8 -4 -25l-150 -649q-25 -123 -24 -168q0 -33 9 -71.5t9 -55.5 q0 -12 -24 -22l-164 -64q-18 -6 -21 -6q-16 0 -28.5 60.5t-12.5 146.5q-45 -53 -77.5 -87t-109.5 -77t-153 -43q-96 0 -151 62.5t-55 152.5zM483 1249q0 12 23 25l364 196q18 12 33 13q12 0 25 -25l49 -119q10 -25 10 -30q0 -16 -26 -27l-386 -139q-25 -8 -32 -8 q-12 0 -23 24l-26 60q-11 16 -11 30z" />
<glyph unicode="&#xfb;" horiz-adv-x="1062" d="M68 180q0 66 22 160l150 641q2 12 6 16t22 9l168 34l31 7q29 0 29 -21q0 -14 -4 -31l-146 -610q-18 -92 -18 -125q0 -80 61 -80q207 0 291 402l88 399q2 12 6 16t23 9l168 34l30 7q29 0 29 -21q0 -8 -4 -25l-150 -649q-25 -123 -24 -168q0 -33 9 -71.5t9 -55.5 q0 -12 -24 -22l-164 -64q-18 -6 -21 -6q-16 0 -28.5 60.5t-12.5 146.5q-45 -53 -77.5 -87t-109.5 -77t-153 -43q-96 0 -151 62.5t-55 152.5zM389 1249q0 12 19 25l282 188q23 16 33 16.5t25 -14.5l182 -192q23 -29 22 -33q0 -6 -14 -25l-53 -59q-20 -20 -27 -20q-8 0 -24 12 l-146 106l-194 -106q-25 -12 -33 -12q-14 0 -25 20l-33 62q-14 24 -14 32z" />
<glyph unicode="&#xfc;" horiz-adv-x="1062" d="M68 180q0 66 22 160l150 641q2 12 6 16t22 9l168 34l31 7q29 0 29 -21q0 -14 -4 -31l-146 -610q-18 -92 -18 -125q0 -80 61 -80q207 0 291 402l88 399q2 12 6 16t23 9l168 34l30 7q29 0 29 -21q0 -8 -4 -25l-150 -649q-25 -123 -24 -168q0 -33 9 -71.5t9 -55.5 q0 -12 -24 -22l-164 -64q-18 -6 -21 -6q-16 0 -28.5 60.5t-12.5 146.5q-45 -53 -77.5 -87t-109.5 -77t-153 -43q-96 0 -151 62.5t-55 152.5zM340 1296.5q0 59.5 42 101.5t101 42q57 0 99.5 -42t42.5 -101.5t-41 -100.5t-100.5 -41t-101.5 41t-42 100.5zM733 1296.5 q0 59.5 42 101.5t102 42q57 0 99 -42t42 -101.5t-41 -100.5t-100.5 -41t-101.5 41t-42 100.5z" />
<glyph unicode="&#xfd;" horiz-adv-x="985" d="M-150 -350l7 18l73 129q10 16 19 17q6 0 57 -21.5t96 -21.5q119 0 174 102l68 127h-84q-27 0 -29 27l-108 931q-2 10 -2 27q0 18 31 21l151 20q33 4 43 4q12 0 14 -7t7 -34l36 -471q18 -236 19 -368h4q61 193 131 342l238 522q8 16 20 16l37 -4l152 -20q31 -2 30 -15 q0 -6 -14 -35l-406 -837l-40 -85l-45 -95q-15 -33 -47.5 -90.5t-57.5 -90t-63.5 -74.5t-76.5 -63.5t-88.5 -38t-103.5 -16.5t-111.5 16.5t-94.5 36t-36 31.5zM444 1249q0 12 23 25l364 196q18 12 33 13q12 0 25 -25l49 -119q10 -25 10 -30q0 -16 -26 -27l-385 -139 q-25 -8 -33 -8q-12 0 -23 24l-26 60q-11 16 -11 30z" />
<glyph unicode="&#xfe;" horiz-adv-x="1062" d="M-70 -416q0 6 4.5 23.5t4.5 19.5l376 1778q2 12 4.5 17t10.5 10.5t22 7.5l180 37q25 6 31 6q12 0 12 -21q0 -4 -6 -41l-108 -497l4 -4q41 41 68.5 62.5t89 43t143.5 21.5q223 0 223 -308q0 -129 -32.5 -260t-93 -248.5t-164 -191.5t-230.5 -74q-98 0 -201 51l-80 -372 q-2 -12 -4 -17.5t-10 -10.5t-22 -7l-181 -37q-25 -6 -30 -6q-11 0 -11 18zM305 197q92 -41 154 -41q74 0 132 54t90 139t47 175t15 176q0 141 -98 142q-96 0 -170 -93.5t-98 -213.5z" />
<glyph unicode="&#xff;" horiz-adv-x="985" d="M-150 -350l7 18l73 129q10 16 19 17q6 0 57 -21.5t96 -21.5q119 0 174 102l68 127h-84q-27 0 -29 27l-108 931q-2 10 -2 27q0 18 31 21l151 20q33 4 43 4q12 0 14 -7t7 -34l36 -471q18 -236 19 -368h4q61 193 131 342l238 522q8 16 20 16l37 -4l152 -20q31 -2 30 -15 q0 -6 -14 -35l-406 -837l-40 -85l-45 -95q-15 -33 -47.5 -90.5t-57.5 -90t-63.5 -74.5t-76.5 -63.5t-88.5 -38t-103.5 -16.5t-111.5 16.5t-94.5 36t-36 31.5zM301 1296.5q0 59.5 42 101.5t101 42q57 0 99.5 -42t42.5 -101.5t-41 -100.5t-100.5 -41t-101.5 41t-42 100.5z M694 1296.5q0 59.5 42 101.5t102 42q57 0 99 -42t42 -101.5t-41 -100.5t-100.5 -41t-101.5 41t-42 100.5z" />
<glyph unicode="&#x152;" horiz-adv-x="1554" d="M94 389q0 186 42 366.5t122 336t214 251t304 95.5q92 0 162 -35h704q23 0 29 -4t6 -19l-12 -30l-70 -136q-16 -27 -43 -26h-403l-74 -346h348q29 0 29 -23q0 -8 -4 -28l-29 -136q-4 -20 -10 -24t-27 -4h-352l-86 -412h440q35 0 35 -18q0 -4 -6 -35l-29 -133 q-4 -18 -11 -23.5t-25 -5.5h-686q-66 -20 -80 -23q-66 -12 -109 -12q-182 0 -280.5 108.5t-98.5 315.5zM371 395q0 -113 28.5 -164t102.5 -51q41 0 99 21.5t81 44.5l190 911q-23 31 -59.5 48.5t-67.5 17.5q-115 0 -203.5 -140.5t-129.5 -325t-41 -362.5z" />
<glyph unicode="&#x153;" horiz-adv-x="1554" d="M45 338q0 291 166 500t416 209q90 0 159.5 -44.5t96.5 -103.5q31 31 47 45t62 44t106.5 44.5t136.5 14.5q143 0 223 -73t80 -198q0 -80 -26.5 -143.5t-65.5 -103.5t-100.5 -68.5t-110.5 -41.5t-121 -20.5t-106.5 -8.5t-89.5 -1q-10 -39 -11 -98q0 -121 170 -121 q72 0 164 41t96 41q10 0 17 -14l51 -127l6 -19q0 -14 -54 -44t-151.5 -56.5t-193.5 -26.5q-102 0 -170 24.5t-127 108.5q-119 -133 -322 -133q-348 0 -348 373zM305 319q0 -150 125 -149q68 0 122 53t86 134t48 168t16 167q0 150 -124 150q-68 0 -122.5 -53.5t-86 -134.5 t-48 -168t-16.5 -167zM948 573q344 0 344 189q0 43 -24.5 71.5t-69.5 28.5q-63 0 -112.5 -32.5t-77 -85t-40 -91.5t-20.5 -80z" />
<glyph unicode="&#x178;" horiz-adv-x="1062" d="M186 1348q0 12 33 22l189 49q6 2 22 2t27 -37l80 -299q35 -125 45 -268h4q80 150 162 270l210 312q16 23 26.5 22.5t31.5 -4.5l182 -51q29 -8 29 -23q0 -18 -8 -26l-541 -742l-113 -546q-4 -18 -11 -23.5t-26 -5.5h-198q-31 0 -31 23q0 14 4 30l113 522l-228 750 q-2 5 -2 23zM401 1687.5q0 59.5 42 101.5t102 42q57 0 99 -42t42 -101.5t-41 -100.5t-100.5 -41t-101.5 41t-42 100.5zM795 1687.5q0 59.5 42 101.5t101 42q57 0 99 -42t42 -101.5t-41 -100.5t-100 -41t-101 41t-42 100.5z" />
<glyph unicode="&#x2c6;" horiz-adv-x="737" d="M225 1249q0 12 19 25l282 188q23 16 33 16.5t25 -14.5l182 -192q23 -29 22 -33q0 -6 -14 -25l-53 -59q-20 -20 -27 -20q-8 0 -24 12l-146 106l-194 -106q-25 -12 -33 -12q-14 0 -25 20l-32 62q-15 24 -15 32z" />
<glyph unicode="&#x2dc;" horiz-adv-x="737" d="M205 1255.5q0 10.5 26.5 49t84 79.5t118.5 41q57 0 115.5 -36.5t77.5 -36.5q33 0 65.5 35.5t38.5 35.5t19 -8l65 -53q14 -14 14 -23q0 -14 -29.5 -54t-87 -79t-116.5 -39q-61 0 -110.5 37t-71.5 37q-35 0 -69 -36t-40 -36q-8 0 -20 13l-70 57q-10 6 -10 16.5z" />
<glyph unicode="&#x2013;" d="M70 424q0 8 6 45l30 137q6 20 12.5 25.5t24.5 5.5h930q35 0 35 -23q0 -8 -6 -45l-31 -137q-6 -20 -12 -25.5t-25 -5.5h-930q-34 0 -34 23z" />
<glyph unicode="&#x2014;" horiz-adv-x="2048" d="M68 424q0 8 6 45l30 137q6 20 12.5 25.5t24.5 5.5h1844q35 0 34 -23q0 -8 -6 -45l-31 -137q-6 -20 -12 -25.5t-24 -5.5h-1844q-34 0 -34 23z" />
<glyph unicode="&#x2018;" horiz-adv-x="454" d="M111 938q0 14 14 33l348 479q14 18 23 18q2 0 30 -14l74 -45q20 -14 20.5 -22.5t-12.5 -32.5l-207 -416q-8 -14 -14 -18.5t-22 -4.5h-220q-34 0 -34 23z" />
<glyph unicode="&#x2019;" horiz-adv-x="454" d="M121 997.5q0 8.5 12 32.5l207 416q8 14 14 18t23 4h219q35 0 35 -22q0 -14 -15 -33l-348 -479q-14 -18 -22 -19q-2 0 -31 15l-74 45q-20 14 -20 22.5z" />
<glyph unicode="&#x201a;" horiz-adv-x="454" d="M-111 -215q0 8 13 33l207 415q10 23 36 23h220q35 0 34 -23q0 -14 -14 -32l-348 -480q-14 -18 -23 -18q-2 0 -30 14l-74 45q-21 15 -21 23z" />
<glyph unicode="&#x201c;" horiz-adv-x="985" d="M170 938q0 14 14 33l348 479q14 18 23 18q2 0 31 -14l73 -45q20 -14 20.5 -22.5t-11.5 -32.5l-207 -416q-10 -23 -37 -23h-219q-35 0 -35 23zM588 938q0 14 14 33l348 479q14 18 23 18q2 0 31 -14l73 -45q20 -14 20.5 -22.5t-12.5 -32.5l-206 -416q-10 -23 -37 -23h-219 q-35 0 -35 23z" />
<glyph unicode="&#x201d;" horiz-adv-x="985" d="M170 997.5q0 8.5 12 32.5l207 416q8 14 14.5 18t22.5 4h219q35 0 35 -22q0 -14 -14 -33l-349 -479q-14 -18 -22 -19q-2 0 -31 15l-74 45q-20 14 -20 22.5zM588 997.5q0 8.5 12 32.5l207 416q8 14 14 18t23 4h219q35 0 35 -22q0 -14 -15 -33l-348 -479q-14 -18 -22 -19 q-2 0 -31 15l-74 45q-20 14 -20 22.5z" />
<glyph unicode="&#x201e;" horiz-adv-x="985" d="M-78 -215q0 8 12 33l207 415q10 23 37 23h219q35 0 35 -23q0 -14 -14 -32l-348 -480q-14 -18 -23 -18q-2 0 -31 14l-73 45q-21 15 -21 23zM340 -215q0 8 12 33l207 415q10 23 37 23h219q35 0 35 -23q0 -14 -14 -32l-349 -480q-14 -18 -22 -18q-2 0 -31 14l-74 45 q-20 15 -20 23z" />
<glyph unicode="&#x2022;" horiz-adv-x="1024" d="M182 737q0 154 108.5 263.5t262.5 109.5q152 0 261.5 -109.5t109.5 -263.5q0 -152 -109.5 -260t-261.5 -108q-154 0 -262.5 108t-108.5 260z" />
<glyph unicode="&#x2026;" horiz-adv-x="2048" d="M80 184q0 76 54 130.5t130 54.5t130.5 -54.5t54.5 -130t-54.5 -130t-130.5 -54.5t-130 53t-54 131zM762 184q0 76 54 130.5t130 54.5t130 -54.5t54 -130t-54 -130t-130 -54.5q-78 0 -131 53t-53 131zM1444 184q0 76 54 130.5t130 54.5t130 -54.5t54 -130t-54 -130 t-130 -54.5t-130 53t-54 131z" />
<glyph unicode="&#x2039;" horiz-adv-x="720" d="M84 512q0 14 10 23l473 462q14 14 25 15q8 0 24 -13l86 -73q18 -18 19 -25q0 -4 -14 -24l-347 -388l166 -374q0 -2 4.5 -11.5t4.5 -15.5q0 -14 -17 -22l-119 -56q-25 -10 -28 -10q-14 0 -25 20l-256 472q-6 8 -6 20z" />
<glyph unicode="&#x203a;" horiz-adv-x="720" d="M0 111q0 4 14 24l346 387l-165 375q0 2 -4.5 11.5t-4.5 15.5q0 14 17 22l119 55q25 10 28 11q14 0 25 -21l256 -471q6 -8 6 -20q0 -14 -10 -23l-473 -463q-14 -14 -25 -14q-8 0 -25 12l-86 74q-18 19 -18 25z" />
<glyph unicode="&#x20ac;" d="M72 573q0 10 4 27l6 23q6 20 12 25t25 5h141q6 57 19 113h-127q-35 0 -35 20q0 10 4 27l6 23q6 20 12 25t25 5h141q74 246 232.5 391.5t384.5 145.5q121 0 220 -47t99 -90l-10 -21l-92 -139q-8 -12 -20.5 -12t-80 44t-135.5 44q-117 0 -201 -86t-131 -230h328 q35 0 35 -20q0 -10 -4 -27l-6 -22q-6 -20 -12.5 -25.5t-24.5 -5.5h-342q-16 -74 -23 -113h332q35 0 35 -20q0 -10 -4 -27l-6 -22q-6 -20 -12.5 -25.5t-24.5 -5.5h-330q-4 -74 -4 -107q0 -260 192 -260q63 0 115.5 18.5t83.5 37t41 18.5t14 -14l54 -133q6 -12 6 -23 q0 -37 -114 -81t-236 -44q-193 0 -304.5 124t-111.5 364q0 35 4 100h-146q-34 0 -34 20z" />
<glyph unicode="&#x2122;" horiz-adv-x="1441" d="M281 1317v86h389v-86h-152v-508h-88v508h-149zM737 809v594h160l123 -467h4l121 467h164v-594h-88v537h-4l-140 -537h-108l-140 537h-4v-537h-88z" />
<glyph unicode="&#xe000;" horiz-adv-x="1030" d="M0 1030h1030v-1030h-1030v1030z" />
<glyph unicode="&#xfb01;" horiz-adv-x="1214" d="M-207 -379q0 6 4 23l43 143q6 14 15 14q2 0 14 -3t31.5 -5t38.5 -2q51 0 84.5 15.5t53 50t30 67.5t22.5 92l160 811h-146q-29 0 -28 21q0 8 4 24l24 115q2 25 29 25h152l24 129q14 76 30.5 124t52.5 100t100.5 77.5t156.5 25.5q61 0 123.5 -17t62.5 -40q0 -4 -4 -16 l-49 -144q-6 -14 -16 -14q-4 0 -38 13.5t-65 13.5q-53 0 -74.5 -38t-37.5 -112q0 -10 -2 -14l-19 -88h553q25 0 25 -21q0 -18 -2 -24l-201 -942q-2 -16 -7 -20.5t-22 -4.5h-190q-27 0 -27 20q0 2 1 10.5t1 12.5l166 784h-331l-166 -841q-16 -84 -40 -145.5t-66 -124 t-114.5 -96.5t-173.5 -34q-182 0 -182 35zM915 1315q0 74 51.5 121t117 47t117.5 -48.5t52 -120t-50 -120.5t-119.5 -49t-119 49t-49.5 121z" />
<glyph unicode="&#xfb02;" horiz-adv-x="1214" d="M-207 -379q0 6 4 23l43 143q6 14 15 14q2 0 14 -3t31.5 -5t38.5 -2q51 0 84.5 15.5t53 50t30 67.5t22.5 92l160 811h-146q-29 0 -28 21q0 8 4 24l24 115q2 25 29 25h152l24 129q14 74 31.5 123t55.5 101t106.5 77.5t167.5 25.5q61 0 123.5 -17t62.5 -40q0 -4 -4 -16 l-49 -144q-4 -14 -17 -14q-4 0 -37.5 13.5t-64.5 13.5q-35 0 -59.5 -12.5t-39 -40t-21.5 -49t-15 -62.5l-19 -88h234q25 0 24 -19l-6 -24l-37 -119q-4 -14 -9 -18.5t-19 -4.5h-221l-166 -841q-16 -84 -40 -145.5t-66 -124t-114.5 -96.5t-173.5 -34q-182 0 -182 35zM715 137 q0 109 24 217l228 1051q2 12 4 17t10 10.5t23 7.5l180 37q25 6 28 6q10 0 11 -23q0 -2 -6 -39l-232 -1065q-25 -119 -24 -129q0 -41 47 -41q20 0 46.5 7.5t28.5 7.5q12 0 15 -15l20 -141q0 -4 1 -10t1 -10q0 -23 -71.5 -41.5t-135.5 -18.5q-96 0 -147 39t-51 133z" />
<glyph unicode="&#xfb03;" horiz-adv-x="2048" d="M1526 848q0 8 4 24l23 115q4 25 30 25h381q25 0 25 -19q0 -20 -2 -26l-201 -942q-2 -16 -7 -20.5t-22 -4.5h-190q-27 0 -27 20q0 14 2 23l166 784h-155q-27 1 -27 21zM1757 1315q0 74 51.5 121t117 47t117.5 -48.5t52 -120t-50 -120.5t-119.5 -49t-119 49t-49.5 121z M514 -379q0 6 4 23l43 143q6 14 15 14q2 0 14 -3t31.5 -5t38.5 -2q51 0 84.5 15.5t53 50t30 67.5t22.5 92l160 811h-146q-29 0 -28 21q0 8 4 24l24 115q2 25 29 25h152l24 129q14 74 31.5 123t55.5 101t107.5 77.5t170.5 25.5q70 0 138.5 -17t68.5 -40q0 -4 -5 -16l-49 -144 q-6 -14 -16 -14q-6 0 -47 13.5t-76 13.5q-39 0 -63.5 -11.5t-40 -41t-20.5 -48t-15 -63.5l-19 -88h234q25 0 24 -19l-6 -24l-37 -119q-4 -14 -9 -18.5t-19 -4.5h-221l-166 -841q-16 -84 -40 -145.5t-66 -124t-114.5 -96.5t-173.5 -34q-182 0 -182 35zM-207 -379q0 6 4 23 l43 143q6 14 15 14q2 0 14 -3t31.5 -5t38.5 -2q51 0 84.5 15.5t53 50t30 67.5t22.5 92l160 811h-146q-29 0 -28 21q0 8 4 24l24 115q2 25 29 25h152l24 129q14 74 31.5 123t55.5 101t107.5 77.5t170.5 25.5q70 0 138.5 -17t68.5 -40q0 -4 -5 -16l-49 -144q-6 -14 -16 -14 q-6 0 -47 13.5t-76 13.5q-39 0 -63.5 -11.5t-40 -41t-20.5 -48t-15 -63.5l-19 -88h234q25 0 24 -19l-6 -24l-37 -119q-4 -14 -9 -18.5t-19 -4.5h-221l-166 -841q-16 -84 -40 -145.5t-66 -124t-114.5 -96.5t-173.5 -34q-182 0 -182 35z" />
<glyph unicode="&#xfb04;" horiz-adv-x="2011" d="M1510 137q0 109 24 217l227 1051q2 12 4.5 17t10.5 10.5t22 7.5l181 37q25 6 28 6q10 0 10 -21q0 -4 -6 -41l-231 -1065q-25 -119 -25 -129q0 -41 47 -41q20 0 47 7.5t29 7.5q12 0 15 -15l20 -141q0 -4 1 -10t1 -10q0 -23 -71.5 -41.5t-135.5 -18.5q-96 0 -147 39 t-51 133zM514 -379q0 6 4 23l43 143q6 14 15 14q2 0 14 -3t31.5 -5t38.5 -2q51 0 84.5 15.5t53 50t30 67.5t22.5 92l160 811h-146q-29 0 -28 21q0 8 4 24l24 115q2 25 29 25h152l24 129q14 74 31.5 123t55.5 101t107.5 77.5t170.5 25.5q70 0 138.5 -17t68.5 -40q0 -4 -5 -16 l-49 -144q-6 -14 -16 -14q-6 0 -47 13.5t-76 13.5q-39 0 -63.5 -11.5t-40 -41t-20.5 -48t-15 -63.5l-19 -88h234q25 0 24 -19l-6 -24l-37 -119q-4 -14 -9 -18.5t-19 -4.5h-221l-166 -841q-16 -84 -40 -145.5t-66 -124t-114.5 -96.5t-173.5 -34q-182 0 -182 35zM-207 -379 q0 6 4 23l43 143q6 14 15 14q2 0 14 -3t31.5 -5t38.5 -2q51 0 84.5 15.5t53 50t30 67.5t22.5 92l160 811h-146q-29 0 -28 21q0 8 4 24l24 115q2 25 29 25h152l24 129q14 74 31.5 123t55.5 101t107.5 77.5t170.5 25.5q70 0 138.5 -17t68.5 -40q0 -4 -5 -16l-49 -144 q-6 -14 -16 -14q-6 0 -47 13.5t-76 13.5q-39 0 -63.5 -11.5t-40 -41t-20.5 -48t-15 -63.5l-19 -88h234q25 0 24 -19l-6 -24l-37 -119q-4 -14 -9 -18.5t-19 -4.5h-221l-166 -841q-16 -84 -40 -145.5t-66 -124t-114.5 -96.5t-173.5 -34q-182 0 -182 35z" />
</font>
</defs>
</svg>
